**ABCDEFGHIJKLMNOPQRSTUVWXYZabcdefghijklmnopqrstuvwxyz**************************
**PARASOLID !"#$%&'()*+,-./:;<=>?@[\]^_`{|}~0123456789**************************
**PART1;
MC=AMD64;
MC_MODEL=Intel64 Family 6 Model 154 Stepping 3, GenuineIntel;
MC_ID=unknown;
OS=Windows_NT;
OS_RELEASE=unknown;
FRU=Parasolid Version 35.1, build 251, 11- 4-2023;
APPL=SOLIDWORKS 2024-2024203;
SITE=;
USER=unknown;
FORMAT=text;
GUISE=transmit;
KEY=Barry;
FILE=Barry.x_t;
DATE=Sat May 30 23:41:56 2026;
**PART2;
SCH=SCH_3501251_35102;
USFLD_SIZE=0;
**PART3;
**END_OF_HEADER*****************************************************************
T51 : TRANSMIT FILE created by modeller version 350125123 SCH_3501251_35102_1300
6231 0 12 36 CCCI7 lattice222 0 CCCI4 mesh1006 0 I8 polyline1008 0 CCCCCCCDI5 ow
ner1040 0 CCCI16 boundary_lattice222 0 CCCI13 boundary_mesh1006 0 I17 boundary_p
olyline1008 0 CCCA16 index_map_offset0 0 1 dA9 index_map82 0 A17 node_id_index_m
ap82 0 A20 schema_embedding_map82 0 A5 child12 0 A14 lowest_node_id0 0 1 dA16 me
sh_offset_data206 0 Z1 675 2 3 0 0 0 0 0 0 0 1e3 1e-8 0 4 0 1 0 1 1 5 0 6 7 8 0
 0 9 10 11 0 0 0 0 0 0 0 81 255 2 2 645 12 1 13 0 0 0 0 14 70 11 CI9 list_type0
 0 1 uI10 notransmit0 0 1 lCCCDCCDI12 finger_index0 0 1 dI12 finger_block1012 0
 CZ3 0 4 T1 0 0 11 20 1 15 15 13 255 5 31 0 1 0 16 0 0 17 0 67 255 6 30 0 16 18
 0 0 +19 0 0 -1 .0612295472407712 134 255 7 281 0 20 21 0 0 +22 23 29 255 8 258
 0 11 24 0 .0530930879769101 -.1454695150257174 .031 19 9 CCCCCCI5 frame230 0 CA
5 owner12 0 Z9 9 0 1 17 0 25 0 V0 16 255 10 292 0 ?26 0 20 7 20 20 1 18 255 11 2
56 0 27 0 28 8 ?1 17 255 27 0 29 30 31 11 32 33 0 34 +18 28 250 0 35 11 36 24 ?1
 17 35 0 29 37 38 28 39 40 0 41 +18 36 75 0 42 28 43 44 ?1 29 24 252 0 28 44 8 .
055189671373686 -.183461803067807 .031 29 44 77 0 36 45 24 -.0515784506059201 -.
01863555939001525 .031 29 45 74 0 43 46 44 -.02697843393306785 .0265567146381178
 .031 18 43 73 0 30 36 47 45 ?1 29 46 62 0 47 48 45 -.0515784506059201 -.0186355
5939001525 0 18 47 60 0 49 43 50 46 ?1 29 48 59 0 50 51 46 -.02697843393306785 .
0265567146381178 0 18 50 58 0 52 47 53 48 ?1 29 51 207 0 53 54 48 -.024414333280
06935 -.01863555937490315 .031 18 53 138 0 55 50 56 51 ?1 29 54 209 0 56 57 51 -
.02441433328006935 -.01863555937490315 .032 18 56 144 0 58 53 59 54 ?1 29 57 210
 0 59 60 54 -.0672895357117868 -.01863555937490315 .032 18 59 143 0 61 56 62 57
 ?1 29 60 211 0 62 63 57 -.0672895357117868 .03091692868142595 .032 18 62 142 0
 64 59 65 60 ?1 29 63 212 0 65 66 60 -.02722582196411645 .03091692868142595 .032
 18 65 140 0 67 62 68 63 ?1 29 66 214 0 68 69 63 -.0672895357117868 -.0186355593
7490315 0 18 68 136 0 70 65 71 66 ?1 29 69 215 0 71 72 66 -.0672895357117868 .03
091692868142595 0 18 71 141 0 73 68 74 69 ?1 29 72 216 0 74 75 69 -.027225821964
11645 .03091692868142595 0 18 74 134 0 76 71 77 72 ?1 29 75 452 0 77 78 72 .0610
883800663589 -.1491594729754322 .002 18 77 373 0 79 74 80 75 ?1 29 78 453 0 80 8
1 75 .0551896713736859 -.1834618030678065 .002 18 80 361 0 26 77 82 78 ?1 29 81
 454 0 82 83 78 .0610883800671705 -.1491594729738814 .031 18 82 365 0 84 80 85 8
1 ?1 29 83 456 0 85 86 81 .04289299610408615 -.192125914514546 .002 18 85 372 0
 87 82 88 83 ?1 29 86 457 0 88 89 83 .04289299610408615 -.1921259145145455 .031
 18 88 363 0 90 85 91 86 ?1 29 89 458 0 91 92 86 .0530930879769101 -.14546951504
02218 .002 18 91 362 0 93 88 94 89 ?1 29 92 460 0 95 96 89 .0687624971351058 -.2
055996349468625 .031 18 95 370 0 97 98 99 92 ?1 29 96 461 0 99 100 92 .043444551
911257 -.2055996349468625 .031 18 99 364 0 101 95 102 96 ?1 29 100 463 0 102 103
 96 .0631362870853616 -.1454695150402218 .031 18 102 366 0 31 99 0 100 ?1 29 103
 464 0 94 104 100 .0687624971351058 -.2055996349468625 .002 18 94 367 0 105 91 1
06 103 ?1 29 104 465 0 106 107 103 .043444551911257 -.2055996349468625 .002 18 1
06 369 0 108 94 98 104 ?1 29 107 467 0 98 0 104 .0631362870853616 -.145469515040
2218 .002 18 98 368 0 109 106 95 107 ?1 17 109 0 110 111 79 98 112 113 0 114 +15
 255 110 396 0 79 115 0 17 111 0 110 84 109 102 114 116 0 32 +17 79 0 110 109 84
 77 117 118 0 112 -17 112 0 119 93 120 77 109 113 0 121 -16 113 321 0 ?109 122 1
23 124 122 122 1 17 114 0 125 126 32 98 111 116 0 120 -15 125 404 0 34 127 0 17
 126 0 125 34 114 91 120 128 0 129 +17 32 0 125 114 34 102 27 33 0 0 -16 116 324
 0 ?111 130 131 132 0 0 1 17 120 0 119 112 93 98 126 128 0 0 -15 119 382 0 112 1
33 0 17 93 0 119 120 112 91 121 20 0 126 +16 128 329 0 ?126 134 122 135 0 0 1 16
 134 325 0 ?108 131 128 136 0 0 1 16 122 318 0 ?137 128 113 124 113 113 1 30 255
 135 450 0 128 124 136 0 +.0631362870853616 -.1454695150402218 .002 -1 0 0 134 1
24 451 0 122 0 135 138 +139 140 30 136 449 0 134 135 141 0 +.04098308501449395 -
.1454695150402218 .002 .04090141700822825 -.99916318691529 0 30 141 448 0 131 13
6 142 0 +.043444551911257 -.2055996349468625 .002 1 0 0 16 131 337 0 ?143 116 13
4 141 0 0 1 134 142 447 0 40 141 144 0 +145 146 16 40 309 0 ?35 33 147 142 147 1
47 1 30 144 446 0 33 142 148 0 +.0631362870853616 -.1454695150402218 .031 -1 0 0
 136 255 145 2 3 3 2 5 FFF1 149 150 151 135 255 146 2 0 45 255 9 149 .0687624971
351058 -.2055996349468625 .031 .04260471937724175 -.180494440079804 .031 .063136
2870853616 -.1454695150402218 .031 127 255 2 150 3 3 128 255 2 151 0 1 16 33 315
 0 ?27 152 40 144 0 0 1 30 148 445 0 152 144 153 0 +.04098308501449395 -.1454695
150402218 .031 .04090141700822825 -.99916318691529 0 16 152 303 0 ?101 123 33 14
8 0 0 1 30 153 444 0 123 148 154 0 +.043444551911257 -.2055996349468625 .031 1 0
 0 16 123 306 0 ?38 113 152 153 0 0 1 30 154 443 0 155 153 156 0 +.0687624971351
058 -.2055996349468625 .002 0 0 1 16 155 340 0 ?97 157 130 154 0 0 1 30 156 442
 0 130 154 132 0 +.043444551911257 -.2055996349468625 .002 0 0 1 16 130 328 0 ?1
58 155 116 156 0 0 1 30 132 440 0 116 156 159 0 +.0631362870853616 -.14546951504
02218 .002 0 0 1 30 159 439 0 157 132 160 0 +.0530930880176054 -.145469515040221
6 .031 0 0 -1 16 157 345 0 ?129 161 155 159 0 0 1 30 160 438 0 161 159 162 0 -.0
4289299610408615 -.1921259145145455 .031 0 0 -1 16 161 344 0 ?163 118 157 160 0
 0 1 30 162 437 0 118 160 164 0 +.0610883800671726 -.1491594729738772 .002 0 0 1
 16 118 336 0 ?117 165 161 162 0 0 1 30 164 436 0 165 162 166 0 -.05518967137368
61 -.183461803067807 .002 0 0 1 16 165 332 0 ?167 168 118 164 0 0 1 30 166 203 0
 168 164 169 0 +-.02441433328006935 -.01863555937490315 0 -.056646485034233 .998
394298728346 0 16 168 96 0 ?76 170 165 166 0 0 1 30 169 202 0 170 166 171 0 +-.0
2722582196411645 .03091692868142595 0 -1 0 0 16 170 111 0 ?172 173 168 169 0 0 1
 30 171 201 0 173 169 174 0 +-.0672895357117868 .03091692868142595 0 0 -1 0 16 1
73 115 0 ?175 176 170 171 0 0 1 30 174 200 0 176 171 177 0 +-.0672895357117868 -
.01863555937490315 0 1 0 0 16 176 100 0 ?178 179 173 174 0 0 1 30 177 199 0 179
 174 180 0 +-.02441433328006935 -.01863555937490315 .032 -.056646485034233 .9983
94298728346 0 16 179 121 0 ?181 182 176 177 0 0 1 30 180 198 0 182 177 183 0 +-.
02722582196411645 .03091692868142595 .032 -1 0 0 16 182 124 0 ?64 184 179 180 0
 0 1 30 183 197 0 184 180 185 0 +-.0672895357117868 .03091692868142595 .032 0 -1
 0 16 184 127 0 ?61 186 182 183 0 0 1 30 185 196 0 186 183 187 0 +-.067289535711
7868 -.01863555937490315 .032 1 0 0 16 186 130 0 ?58 188 184 185 0 0 1 30 187 19
5 0 188 185 189 0 +-.02441433328006935 -.01863555937490315 .032 0 0 -1 16 188 99
 0 ?190 191 186 187 0 0 1 30 189 194 0 191 187 192 0 +-.0672895357117868 -.01863
555937490315 .032 0 0 -1 16 191 105 0 ?70 193 188 189 0 0 1 30 192 193 0 193 189
 194 0 +-.0672895357117868 .03091692868142595 .032 0 0 -1 16 193 114 0 ?73 195 1
91 192 0 0 1 30 194 192 0 195 192 196 0 +-.02722582196411645 .03091692868142595
 .032 0 0 -1 16 195 110 0 ?197 198 193 194 0 0 1 30 196 191 0 198 194 199 0 +.06
75136866995857 -.01863555937490315 .031 1 0 0 16 198 104 0 ?200 201 195 196 0 0
 1 30 199 190 0 201 196 202 0 --.0515784506181621 -.01863555937490315 .031 0 0 -
1 16 201 103 0 ?203 204 198 199 0 0 1 30 202 189 0 204 199 205 0 +-.015710923382
5337 -.1720331588189675 .031 -.056646485034233 .998394298728346 0 16 204 94 0 ?2
06 207 201 202 0 0 1 30 205 188 0 207 202 19 0 +-.02697843393328475 .02655671463
80175 .031 0 0 -1 16 207 95 0 ?208 209 204 205 0 0 1 134 19 7 0 210 205 21 211 +
212 213 16 210 76 0 ?214 20 215 19 216 215 1 134 21 25 0 209 19 7 0 +217 218 141
 255 211 6 211 211 19 136 212 3 14 3 18 2 TTF1 219 220 221 135 213 2 0 45 42 219
 -.0243178197996844 -.0526663732965619 .031 .000937751164861698 .057813638398665
6 .031 -.0927059233373681 -.0252088498481276 .031 .0348425285028461 -.0421888332
7597265 .031 -.0425326846992211 -.0849102564767417 .031 -.1236907776419168 -.101
8117902705332 .031 -.00524319580239329 -.2490021917449045 .031 .11233595118914 -
.1307870679567984 .031 -.1017771131364044 -.1429521753412688 .031 .0617583482642
269 -.112100404609053 .031 .0806764848376101 .0417227071032972 .031 -.0243178197
996844 -.0526663732965619 .031 .000937751164861698 .0578136383986656 .031 -.0927
059233373681 -.0252088498481276 .031 127 18 220 1 1 1 1 1 1 1 1 1 1 1 1 1 1 1 1
 1 1 128 18 221 -.247339056827773 -.1342403455594926 -.0585850610251955 0 .06652
90022160049 .1478263334620714 .222247527713655 .261022342460717 .442203314127407
 .516003534202006 .647339484885778 .752660943172227 .865759654440507 .9414149389
74805 1 1.066529002216004 1.147826333462072 1.222247527713654 16 209 61 0 ?52 21
6 207 21 0 0 1 136 217 3 14 3 18 2 TTF1 222 223 224 135 218 2 0 45 42 222 -.0243
178197996844 -.0526663732965619 0 .000937751164861698 .0578136383986656 0 -.0927
059233373681 -.0252088498481276 0 .0348425285028461 -.04218883327597265 0 -.0425
326846992211 -.0849102564767417 0 -.1236907776419168 -.1018117902705332 0 -.0052
4319580239329 -.2490021917449045 0 .11233595118914 -.1307870679567984 0 -.101777
1131364044 -.1429521753412688 0 .0617583482642269 -.112100404609053 0 .080676484
8376101 .0417227071032972 0 -.0243178197996844 -.0526663732965619 0 .00093775116
4861698 .0578136383986656 0 -.0927059233373681 -.0252088498481276 0 127 18 223 1
 1 1 1 1 1 1 1 1 1 1 1 1 1 1 1 1 1 128 18 224 -.247339056827773 -.13424034555949
26 -.0585850610251955 0 .0665290022160049 .1478263334620714 .222247527713655 .26
1022342460717 .442203314127407 .516003534202006 .647339484885778 .75266094317222
7 .865759654440507 .941414938974805 1 1.066529002216004 1.147826333462072 1.2222
47527713654 17 52 0 225 226 49 50 227 209 0 208 +16 216 257 0 ?30 215 209 19 215
 210 1 17 30 0 29 55 27 43 228 216 0 226 +16 215 251 0 ?37 210 216 19 210 216 1
 17 37 0 29 31 35 82 229 215 0 0 +15 29 82 0 214 230 0 17 31 0 29 27 37 102 84 1
47 0 111 +17 229 0 225 167 117 28 37 215 0 0 -15 225 289 0 229 16 0 17 167 0 225
 231 229 80 41 165 0 0 +17 117 0 225 229 121 82 79 118 0 37 +17 121 0 225 117 12
9 77 93 20 0 0 -17 129 0 225 121 228 91 34 157 0 0 +16 20 279 0 ?93 10 210 7 10
 10 1 17 228 0 225 129 226 11 30 216 0 0 -17 34 0 125 32 126 11 129 157 0 228 -1
7 226 0 225 228 52 43 208 207 0 206 -17 208 0 232 76 206 50 226 207 0 233 +17 20
6 0 232 208 190 43 55 204 0 0 +15 232 152 0 206 234 0 17 190 0 232 206 235 53 23
6 188 0 0 +17 55 0 29 42 30 53 206 204 0 200 -17 42 0 29 214 55 36 200 198 0 237
 -17 200 0 238 236 203 53 42 198 0 190 +15 238 156 0 178 239 0 17 236 0 238 240
 200 56 190 188 0 235 -17 203 0 238 200 178 36 49 201 0 0 +17 178 0 238 203 70 4
7 241 176 0 0 +17 49 0 225 52 237 47 203 201 0 227 -17 237 0 225 49 163 36 214 2
10 0 203 -17 227 0 242 241 233 47 52 209 0 178 -15 242 218 0 227 243 0 17 241 0
 242 244 227 68 178 176 0 0 -17 233 0 242 227 245 50 76 168 0 0 -17 245 0 242 23
3 244 74 172 170 0 0 -17 76 0 232 246 208 74 233 168 0 197 +17 246 0 232 235 76
 65 197 195 0 0 -17 197 0 247 172 67 74 246 195 0 245 +15 247 164 0 197 248 0 17
 172 0 247 249 197 71 245 170 0 0 +17 67 0 247 197 249 65 64 182 0 181 -17 249 0
 247 67 172 62 73 193 0 250 -17 64 0 251 61 181 62 67 182 0 249 +17 181 0 251 64
 58 65 235 179 0 246 +15 251 175 0 181 252 0 17 58 0 251 181 61 56 240 186 0 236
 +17 235 0 232 190 246 56 181 179 0 0 -17 61 0 251 58 64 59 250 184 0 253 +17 24
0 0 238 70 236 59 58 186 0 0 -17 70 0 238 178 240 68 253 191 0 175 +17 253 0 254
 250 175 59 70 191 0 240 -17 175 0 254 253 73 68 244 173 0 241 +15 254 168 0 73
 255 0 17 73 0 254 175 250 71 249 193 0 244 +17 244 0 242 245 241 71 175 173 0 1
72 -17 250 0 254 73 253 62 61 184 0 0 -14 255 255 165 256 ?252 248 254 5 257 -0
 0 252 248 25 81 1 256 647 258 255 259 0 0 260 261 14 252 173 260 ?133 255 251 5
 262 +0 0 133 255 25 14 248 161 263 ?255 239 247 5 264 -0 0 255 239 25 50 255 25
7 183 0 255 265 264 0 +-.0672895357117868 .03091692868142595 .032 1 0 0 0 0 -1 1
3 25 10 0 0 0 0 0 0 9 16 14 16 89 266 ?230 0 225 5 6 -0 0 230 0 25 81 1 266 653
 258 16 267 0 263 268 269 14 230 83 268 ?243 16 29 5 270 -0 0 243 16 25 81 1 268
 655 258 230 271 0 266 272 273 14 243 18 272 ?234 230 242 5 18 +0 0 234 230 25 5
0 270 3 0 230 274 18 0 +.0675136866995857 -.167311195126365 .031 0 0 -1 -1 0 0 5
0 274 181 0 234 264 270 0 +-.02441433328006935 -.01863555937490315 .032 -.998394
298728346 -.056646485034233 0 .056646485034233 -.998394298728346 0 50 18 24 0 24
3 270 6 0 +.0675136866995857 -.167311195126365 0 0 0 -1 -1 0 0 14 234 149 275 ?2
39 243 232 5 274 -0 0 239 243 25 50 264 182 0 248 257 274 0 +-.02722582196411645
 .03091692868142595 .032 0 -1 0 0 0 -1 81 1 275 659 258 234 276 0 272 277 278 14
 239 153 277 ?248 234 238 5 265 -0 0 248 234 25 81 1 277 661 258 239 279 0 275 2
80 281 50 265 184 0 239 262 257 0 +-.0672895357117868 -.01863555937490315 .032 0
 1 0 0 0 1 50 262 185 0 252 282 265 0 +0 0 .032 0 0 1 1 0 0 67 282 429 0 283 284
 262 0 +124 0 0 1 .0384650169080854 14 283 389 280 ?285 286 287 5 282 +115 115 2
85 286 25 50 284 430 0 127 288 282 0 +.0631362870853616 -.1454695150402218 .002
 0 1 0 0 0 1 14 127 401 289 ?115 133 125 5 284 +0 0 115 133 25 50 288 431 0 285
 290 284 0 +.04098308501449395 -.1454695150402218 .002 -.99916318691529 -.040901
41700822825 0 .04090141700822825 -.99916318691529 0 14 285 397 291 ?292 283 293
 5 288 +0 0 292 283 25 50 290 432 0 292 294 288 0 +.043444551911257 -.2055996349
468625 .002 0 -1 0 0 0 -1 14 292 409 295 ?0 285 296 5 290 +0 0 0 285 25 50 294 4
34 0 286 0 290 0 +.0542770557437377 -.178014507536673 .002 0 0 1 1 0 0 14 286 37
7 297 ?283 115 298 5 294 -133 133 283 115 25 81 1 297 671 258 286 299 0 295 300
 301 14 115 393 300 ?286 127 110 5 282 +283 283 286 127 25 15 298 379 0 302 286
 0 14 133 380 303 ?127 252 119 5 294 -286 286 127 252 25 81 1 303 675 258 133 30
4 0 300 0 305 80 7 CCCCCDI12 legal_owners0 16 1 lCZ1 258 306 307 9000 1 1 1 1 1
 1 1 1 0 FFFFTFTFFFFFFFFF1 81 3 304 674 308 133 309 303 310 0 311 0 0 81 1 300 6
73 258 115 310 0 297 303 312 82 255 1 305 -206634890 81 3 310 672 308 115 313 30
0 299 304 314 0 0 82 1 312 -210894730 80 3 308 315 316 9000 0 0 0 0 3 5 0 0 0 FF
FFTFFFFFFFFFFF1 1 1 81 1 313 592 317 115 0 310 318 319 320 81 3 299 670 308 286
 319 297 321 310 322 0 0 82 6 314 0 866819803 31256751 0 0 0 81 1 319 593 317 28
6 0 299 313 323 324 81 3 321 668 308 292 325 295 326 299 327 0 0 82 6 322 0 8668
19803 31256751 0 0 0 81 1 325 596 317 292 0 321 328 0 329 81 1 295 669 258 292 3
21 0 291 297 330 81 3 326 666 308 285 328 291 331 321 332 0 0 82 6 327 0 8668198
03 31256751 0 0 0 81 1 328 595 317 285 0 326 323 325 333 81 1 291 667 258 285 32
6 0 289 295 334 81 3 331 664 308 127 318 289 335 326 336 0 0 82 6 332 0 86681980
3 31256751 0 0 0 81 1 318 591 317 127 0 331 309 313 337 81 1 289 665 258 127 331
 0 280 291 338 81 3 335 662 308 283 323 280 279 331 339 0 0 82 6 336 0 866819803
 31256751 0 0 0 81 1 323 594 317 283 0 335 319 328 340 81 1 280 663 258 283 335
 0 277 289 341 81 3 279 660 308 239 342 277 276 335 343 0 0 82 6 339 0 866819803
 31256751 0 0 0 81 1 342 586 317 239 0 279 344 345 346 81 3 276 658 308 234 344
 275 347 279 348 0 0 82 6 343 0 866734710 31256751 0 0 0 81 1 344 585 317 234 0
 276 349 342 350 81 3 347 656 308 243 349 272 271 276 351 0 0 82 6 348 0 8667347
10 31256751 0 0 0 81 1 349 584 317 243 0 347 352 344 353 81 1 272 657 258 243 34
7 0 268 275 354 81 3 271 654 308 230 352 268 267 347 355 0 0 82 6 351 0 86673471
0 31256751 0 0 0 81 1 352 583 317 230 0 271 356 349 357 81 3 267 652 308 16 356
 266 358 271 359 0 0 82 6 355 0 866819803 31256751 0 0 0 81 1 356 582 317 16 0 2
67 0 352 360 81 3 358 650 308 248 345 263 361 267 362 0 0 82 6 359 0 866819803 3
1256751 0 0 0 81 1 345 587 317 248 0 358 342 363 364 81 1 263 651 258 248 358 0
 260 266 365 81 3 361 648 308 252 366 260 259 358 367 0 0 82 6 362 0 866734710 3
1256751 0 0 0 81 1 366 589 317 252 0 361 363 309 368 81 1 260 649 258 252 361 0
 256 263 369 81 3 259 646 308 255 363 256 0 361 370 0 0 82 6 367 0 866734710 312
56751 0 0 0 81 1 363 588 317 255 0 259 345 366 371 82 6 370 0 866734710 31256751
 0 0 0 80 1 317 0 372 8001 0 0 0 0 3 5 0 0 0 FFFFTFTFFFFFFFFF2 83 255 3 371 .792
156862745098 .819607843137255 .933333333333333 79 255 15 372 SDL/TYSA_COLOUR82 1
 369 -288751500 81 1 309 590 317 133 0 304 366 318 373 83 3 368 .792156862745098
 .819607843137255 .933333333333333 83 3 373 .792156862745098 .819607843137255 .9
33333333333333 82 1 365 -281673612 83 3 364 .792156862745098 .819607843137255 .9
33333333333333 83 3 360 .792156862745098 .819607843137255 .933333333333333 83 3
 357 .792156862745098 .819607843137255 .933333333333333 82 1 354 -1066270604 83
 3 353 .792156862745098 .819607843137255 .933333333333333 83 3 350 .792156862745
098 .819607843137255 .933333333333333 83 3 346 .792156862745098 .819607843137255
 .933333333333333 82 1 341 -210370442 83 3 340 .792156862745098 .819607843137255
 .933333333333333 82 1 338 -214695818 83 3 337 .792156862745098 .819607843137255
 .933333333333333 82 1 334 -213254026 83 3 333 .792156862745098 .819607843137255
 .933333333333333 82 1 330 -229572490 83 3 329 .792156862745098 .819607843137255
 .933333333333333 83 3 324 .792156862745098 .819607843137255 .933333333333333 83
 3 320 .792156862745098 .819607843137255 .933333333333333 79 18 316 DOWNSTREAM_F
ACE_ID82 6 311 0 866819803 31256751 0 0 0 79 14 307 SWEntUnchanged17 302 0 298 2
6 374 85 108 134 0 231 -17 26 0 298 375 302 80 231 10 0 137 +17 374 0 298 302 37
5 106 143 131 0 0 -17 108 0 293 158 87 106 302 134 0 376 +17 231 0 225 163 167 8
5 26 10 0 0 -17 163 0 225 237 231 88 87 161 0 214 +17 87 0 293 108 90 85 163 161
 0 302 -17 214 0 29 101 42 88 237 210 0 0 +17 101 0 29 38 214 99 90 152 0 158 +1
7 38 0 29 35 101 95 377 123 0 0 +17 90 0 293 87 158 88 101 152 0 163 -17 158 0 2
93 90 108 99 376 130 0 377 +15 293 400 0 87 285 0 17 376 0 296 143 377 106 158 1
30 0 374 -17 377 0 296 376 97 99 38 123 0 0 -15 296 412 0 377 292 0 17 97 0 296
 377 143 95 105 155 0 39 +17 143 0 296 97 376 94 374 131 0 0 +17 105 0 287 137 3
9 94 97 155 0 375 -17 39 0 287 105 41 95 35 40 0 38 -15 287 392 0 41 283 0 17 41
 0 287 39 137 28 167 165 0 229 -17 137 0 287 41 105 80 375 122 0 167 +17 375 0 2
98 374 26 94 137 122 0 143 -82 1 301 -206241674 82 1 281 -259719052 82 1 278 -25
8342796 82 1 273 -257097610 82 1 269 -256442250 82 1 261 -281935756 17 84 0 110
 79 111 82 31 147 0 117 -16 147 312 0 ?31 40 0 142 40 40 1 141 138 282 138 138 1
24 136 139 2 3 3 2 5 FFF1 378 379 380 135 140 2 0 45 9 378 .0687624971351058 -.2
055996349468625 .002 .04260471937724175 -.180494440079804 .002 .0631362870853616
 -.1454695150402218 .002 127 2 379 3 3 128 2 380 0 1 19 17 32 0 1 0 9 5 0 S0 136
 22 3 14 3 18 2 TTF1 381 382 383 135 23 2 0 45 42 381 -.0243178197996844 -.05266
63732965619 .002 .000937751164861698 .0578136383986656 .002 -.0927059233373681 -
.0252088498481276 .002 .0348425285028461 -.04218883327597265 .002 -.042532684699
2211 -.0849102564767417 .002 -.1236907776419168 -.1018117902705332 .002 -.005243
19580239329 -.2490021917449045 .002 .11233595118914 -.1307870679567984 .002 -.10
17771131364044 -.1429521753412688 .002 .0617583482642269 -.112100404609053 .002
 .0806764848376101 .0417227071032972 .002 -.0243178197996844 -.0526663732965619
 .002 .000937751164861698 .0578136383986656 .002 -.0927059233373681 -.0252088498
481276 .002 127 18 382 1 1 1 1 1 1 1 1 1 1 1 1 1 1 1 1 1 1 128 18 383 -.24733905
6827773 -.1342403455594926 -.0585850610251955 0 .0665290022160049 .1478263334620
714 .222247527713655 .261022342460717 .442203314127407 .516003534202006 .6473394
84885778 .752660943172227 .865759654440507 .941414938974805 1 1.066529002216004
 1.147826333462072 1.222247527713654 74 4 CI16 index_map_offset0 0 1 dCCZ20 15 1
1 0 0 304 384 303 385 386 387 388 389 13 325 2 0 0 0 0 0 0 0 0 0 81 2 384 57 390
 1 0 385 0 0 0 0 81 2 385 479 391 1 384 386 0 0 0 392 81 2 386 496 393 1 385 387
 0 0 0 394 81 2 387 497 395 1 386 388 0 0 396 0 81 1 388 507 397 1 387 389 0 0 3
98 81 2 389 524 399 1 388 13 0 0 400 0 81 2 13 581 401 1 389 2 0 0 0 402 80 2 40
1 403 404 9000 0 0 0 0 3 5 0 0 0 FFTFFFFFFFFFFFFF9 1 82 1 402 1 79 24 404 BODY_I
N_LIGHTWEIGHT_PERM80 2 399 405 406 8004 0 0 0 0 3 5 0 0 0 FFTFFFFFFFFFFFFF2 3 83
 1 400 1 79 16 406 SDL/TYSA_DENSITY80 1 397 407 408 9000 1 1 1 1 1 1 1 1 0 FFTFF
FFFFFFFFFFF1 82 1 398 49238 79 10 408 BODY_MATCH80 2 395 409 410 9000 0 0 0 0 3
 5 0 0 0 FFTFTTTFFTFFFFFF10 10 98 255 13 396 66 111 115 115 45 69 120 116 114 11
7 100 101 51 79 23 410 SWIMPLICITBODYNAME_ID_U80 2 393 411 412 9000 0 0 0 0 3 5
 0 0 0 FFTFFFFFFFFFFFFF9 1 82 1 394 53 79 30 412 LAST_BODY_MODIFYING_FEATURE_ID8
0 2 391 413 414 9000 0 0 0 0 3 5 0 0 0 FFTFFFFFFFFFFFFF9 1 82 1 392 112 79 19 41
4 ENT_TIME_STAMP_200180 2 390 415 416 9000 0 0 0 0 3 5 0 0 0 FFTFFFFFFFFFFFFF9 1
 79 16 416 BODY_RECIPE_200180 2 12 417 418 9000 0 0 0 0 3 5 0 0 0 FFTFFFFFFFFFFF
FF9 1 82 1 14 103 79 12 418 ATOM_ID_20011 0 
