**ABCDEFGHIJKLMNOPQRSTUVWXYZabcdefghijklmnopqrstuvwxyz**************************
**PARASOLID !"#$%&'()*+,-./:;<=>?@[\]^_`{|}~0123456789**************************
**PART1;
MC=AMD64;
MC_MODEL=Intel64 Family 6 Model 154 Stepping 3, GenuineIntel;
MC_ID=unknown;
OS=Windows_NT;
OS_RELEASE=unknown;
FRU=Parasolid Version 35.1, build 251, 11- 4-2023;
APPL=SOLIDWORKS 2024-2024203;
SITE=;
USER=unknown;
FORMAT=text;
GUISE=transmit;
KEY=Varied Area Solid;
FILE=Varied Area Solid.x_t;
DATE=Wed May 13 19:49:51 2026;
**PART2;
SCH=SCH_3501251_35102;
USFLD_SIZE=0;
**PART3;
**END_OF_HEADER*****************************************************************
T51 : TRANSMIT FILE created by modeller version 350125123 SCH_3501251_35102_1300
6231 0 12 36 CCCI7 lattice222 0 CCCI4 mesh1006 0 I8 polyline1008 0 CCCCCCCDI5 ow
ner1040 0 CCCI16 boundary_lattice222 0 CCCI13 boundary_mesh1006 0 I17 boundary_p
olyline1008 0 CCCA16 index_map_offset0 0 1 dA9 index_map82 0 A17 node_id_index_m
ap82 0 A20 schema_embedding_map82 0 A5 child12 0 A14 lowest_node_id0 0 1 dA16 me
sh_offset_data206 0 Z1 216 2 3 0 0 0 0 0 0 0 1e3 1e-8 0 4 0 1 0 1 1 5 0 6 7 0 0
 0 8 9 0 0 0 0 0 0 0 0 81 255 2 2 206 10 1 11 0 0 0 0 12 70 11 CI9 list_type0 0
 1 uI10 notransmit0 0 1 lCCCDCCDI12 finger_index0 0 1 dI12 finger_block1012 0 CZ
3 0 4 T1 0 0 12 20 1 13 13 13 255 5 41 0 1 0 14 0 0 15 0 50 255 6 155 0 1 16 0 1
7 +0 0 .02 0 0 1 1 0 0 38 12 CCCCCCCCCCCA17 intersection_data204 0 Z7 158 0 1 18
 0 19 -16 6 20 21 21 22 19 9 CCCCCCI5 frame230 0 CA5 owner12 0 Z8 47 0 1 15 0 23
 0 V0 16 255 9 134 0 ?24 0 25 18 0 0 1 17 255 24 0 26 24 24 0 27 9 0 0 +16 25 12
6 0 ?28 9 29 30 0 0 1 38 18 137 0 9 30 7 0 +31 32 33 34 34 35 38 30 129 0 25 36
 18 0 +37 38 39 40 40 41 59 255 31 138 0 1 37 42 43 +0 42 50 32 10 0 44 0 38 45
 +0 0 0 0 0 1 1 0 0 40 255 22 33 0 1 22 .004241265858026395 .37183012662609 ??-.
0620584867341486 .000897369686642417 0 -.0616923932123689 .00679423673073088 0 -
.0559622708497289 .02683853801977735 0 -.04392145124247585 .0438517807345883 0 -
.02693659737099895 .0559152896954181 0 -.00691251607786486 .0616791490026371 0 .
01390235724053364 .0604879933004796 0 .02372035529380335 .0573534413184238 0 .04
136332868651965 .0462728311920863 0 .0543468898867815 .02997524271618865 0 .0612
065990913679 .01028711051081316 0 .0620585742796248 -.000896905627725362 0 .0574
92898546765 -.0233803584401533 0 .0465148373056369 -.04109103608739595 0 .030292
5816054084 -.0541706215290876 0 .01064512867171284 -.0611453435754105 0 -.010190
76142517584 -.0612228284984682 0 -.02987598748158625 -.0544016063062703 0 -.0462
027788134677 -.04144136163338005 0 -.0524251350280974 -.03322160374631355 0 -.06
04650661034288 -.01400209821428292 0 -.0620584867341486 .000897369686642415 0 41
 3 CI8 term_use0 0 1 cCZ1 34 H?-.0620584867341486 .000897369686642417 0 204 2 17
 INTERSECTION_DATA17 Intersection data7 uv_type0 0 1 u6 values0 1 1 fT44 35 3 -.
0620584867341486 .000897369686642417 -.0616923932123689 .00679423673073088 -.055
9622708497289 .02683853801977735 -.04392145124247585 .0438517807345883 -.0269365
9737099895 .0559152896954181 -.00691251607786486 .0616791490026371 .013902357240
53364 .0604879933004796 .02372035529380335 .0573534413184238 .04136332868651965
 .0462728311920863 .0543468898867815 .02997524271618865 .0612065990913679 .01028
711051081316 .0620585742796248 -.000896905627725362 .057492898546765 -.023380358
4401533 .0465148373056369 -.04109103608739595 .0302925816054084 -.05417062152908
76 .01064512867171284 -.0611453435754105 -.01019076142517584 -.0612228284984682
 -.02987598748158625 -.0544016063062703 -.0462027788134677 -.04144136163338005 -
.0524251350280974 -.03322160374631355 -.0604650661034288 -.01400209821428292 -.0
620584867341486 .000897369686642415 14 255 44 8 46 ?47 14 26 5 32 -0 0 47 14 23
 124 255 38 32 0 47 32 48 49 +50 51 141 255 45 18 52 52 32 141 52 42 45 45 32 56
 255 42 157 0 53 31 16 54 +R38 32 7 -.02 .02 1 1 0 0 0 0 14 53 148 55 ?0 56 57 5
 42 +0 0 0 56 23 60 255 16 156 0 1 42 6 58 +UF38 -.02 ?141 54 37 59 59 42 59 37
 130 0 1 60 31 61 +1 42 141 59 31 54 54 42 60 60 113 0 1 62 37 63 +UF38 -.02 ?14
1 61 30 61 61 37 50 62 114 0 1 64 60 65 +0 0 .45 0 0 1 1 0 0 141 63 36 63 63 60
 38 36 116 0 1 66 30 67 +62 60 68 69 69 70 38 66 95 0 29 71 36 0 +38 72 73 74 74
 75 141 67 64 67 67 36 40 20 68 0 1 20 .00409354956400073 .337561620899062 ??.07
200977093273 -.00867765052515257 .45 .0708247689989649 .01563970419577365 .45 .0
61654484209353 .03820276602420645 .45 .0455269532835236 .0564623617156303 .45 .0
2427685254366055 .0683473825750618 .45 .000290423784591016 .0725304354453978 .45
 -.023742361505196 .0685347386056311 .45 -.0450899501935534 .0568120126342369 .4
5 -.0613493202681446 .03869118003807865 .45 -.0706978756479055 .0162030548034229
5 .45 -.0725310082941837 -58777547426041e-20 .45 -.0687867594806494 -.0230018152
5133 .45 -.057295713463022 -.0444737143393632 .45 -.0393523630013062 -.060927393
1912261 .45 -.0169613581745064 -.0705197594867718 .45 .00734386055652045 -.07215
79416998887 .45 .03080832742042455 -.0656626362864025 .45 .0508031667732526 -.05
17666229966478 .45 .0650785538357166 -.0320232646802226 .45 .07200977093273 -.00
867765052515257 .45 41 1 69 H?.07200977093273 -.00867765052515257 .45 204 80 70
 4 .07200977093273 -.00867765052515257 .354262882431871 .925178847355863 .070824
7689989649 .01563970419577365 .407939368426757 .925178800153679 .061654484209353
 .03820276602420645 .461633855453177 .925178868770967 .0455269532835236 .0564623
617156303 .51534838861745 .925178876314543 .02427685254366055 .0683473825750618
 .569031214264825 .925178821444538 .000290423784591016 .0725304354453978 .622709
996823494 .925178840666716 -.023742361505196 .0685347386056311 .67642345169206 .
925178886846014 -.0450899501935534 .0568120126342369 .730121875556853 .925178851
732749 -.0613493202681446 .03869118003807865 .783798675146853 .925178806321351 -
.0706978756479055 .01620305480342295 .837489537027962 .92517886659492 -.07253100
82941837 -58777547426041e-20 .873348854559932 .925178827415602 -.068786759480649
4 -.02300181525133 .924707603215268 .925178881577881 -.057295713463022 -.0444737
143393632 .978403793340372 .925178839751558 -.0393523630013062 -.060927393191226
1 .03207662623019345 .925178806522846 -.0169613581745064 -.0705197594867718 .085
7801286037321 .925178882934729 .00734386055652045 -.0721579416998887 .1394912181
885118 .925178879840631 .03080832742042455 -.0656626362864025 .193171442265141 .
925178811237199 .0508031667732526 -.0517666229966478 .246852034970693 .925178841
382215 .0650785538357166 -.0320232646802226 .30056826143259 .925178882207044 ??.
354262882431871 .925178847355863 56 64 115 0 56 72 62 76 +R48 38 36 -.02 -.02 1
 1 0 0 0 0 14 56 106 77 ?53 47 78 5 64 +0 0 53 47 23 59 72 96 0 1 79 64 80 +0 64
 141 76 79 81 81 64 50 48 51 0 14 38 79 82 +0 0 .47 0 0 1 1 0 0 14 14 44 83 ?44
 0 84 5 48 +0 0 44 0 23 59 79 88 0 1 48 72 85 +1 64 141 82 71 86 86 48 38 71 87
 0 87 0 66 0 +48 79 88 89 89 90 141 86 64 82 82 48 16 87 84 0 ?91 29 0 71 0 0 1
 40 21 88 0 1 21 .00409354956400105 .3375616208990915 ??.0725310117148967 101436
0007602184e-21 .47 .0708247689989649 .01563970419577365 .47 .061654484209353 .03
820276602420645 .47 .0455269532835236 .0564623617156303 .47 .02427685254366055 .
0683473825750618 .47 .000290423784591016 .0725304354453978 .47 -.023742361505196
 .0685347386056311 .47 -.0450899501935534 .0568120126342369 .47 -.06134932026814
46 .03869118003807865 .47 -.0706978756479055 .01620305480342295 .47 -.0725310082
941837 -58777547426041e-20 .47 -.0687867594806494 -.02300181525133 .47 -.0572957
13463022 -.0444737143393632 .47 -.0393523630013062 -.0609273931912261 .47 -.0169
613581745064 -.0705197594867718 .47 .00734386055652045 -.0721579416998887 .47 .0
3080832742042455 -.0656626362864025 .47 .0508031667732526 -.0517666229966478 .47
 .0650785538357166 -.0320232646802226 .47 .07200977093273 -.00867765052515257 .4
7 .0725310117148966 1014360007603896e-21 .47 41 1 89 H?.0725310117148967 1014360
007602184e-21 .47 204 42 90 2 .0725310117148967 1014360007602184e-21 .0708247689
989649 .01563970419577365 .061654484209353 .03820276602420645 .0455269532835236
 .0564623617156303 .02427685254366055 .0683473825750618 .000290423784591016 .072
5304354453978 -.023742361505196 .0685347386056311 -.0450899501935534 .0568120126
342369 -.0613493202681446 .03869118003807865 -.0706978756479055 .016203054803422
95 -.0725310082941837 -58777547426041e-20 -.0687867594806494 -.02300181525133 -.
057295713463022 -.0444737143393632 -.0393523630013062 -.0609273931912261 -.01696
13581745064 -.0705197594867718 .00734386055652045 -.0721579416998887 .0308083274
2042455 -.0656626362864025 .0508031667732526 -.0517666229966478 .065078553835716
6 -.0320232646802226 .07200977093273 -.00867765052515257 .0725310117148966 10143
60007603896e-21 17 91 0 84 91 91 0 92 87 0 0 +16 29 92 0 ?93 25 87 66 0 0 1 17 9
3 0 94 93 93 0 95 29 0 0 +15 255 94 93 0 93 47 0 17 95 0 78 95 95 0 93 29 0 0 -1
5 78 107 0 95 56 96 15 96 108 0 92 56 0 17 92 0 96 92 92 0 91 87 0 0 -14 47 22 9
7 ?56 44 98 5 38 +0 0 56 44 23 81 1 97 216 99 47 100 0 83 0 101 15 98 127 0 28 4
7 94 13 23 48 0 0 0 0 0 0 8 14 17 28 0 98 28 28 0 102 25 0 0 +17 102 0 103 102 1
02 0 28 25 0 0 -15 103 150 0 102 53 0 80 7 CCCCCDI12 legal_owners0 16 1 lCZ1 99
 104 105 9000 1 1 1 1 1 1 1 1 0 FFFFTFTFFFFFFFFF1 81 3 100 215 106 47 107 97 108
 0 109 0 0 81 1 83 214 99 14 108 0 77 97 110 82 255 1 101 -820576092 81 3 108 21
3 106 14 111 83 112 100 113 0 0 81 1 77 212 99 56 112 0 55 83 114 82 1 110 -8175
61438 81 3 112 211 106 56 115 77 116 108 117 0 0 81 1 55 210 99 53 116 0 46 77 1
18 82 1 114 -300941150 81 3 116 209 106 53 119 55 120 112 121 0 0 81 1 46 208 99
 44 120 0 0 55 122 82 1 118 16777380 81 3 120 207 106 44 123 46 0 116 124 0 0 82
 1 122 -818413404 80 3 106 125 126 9000 0 0 0 0 3 5 0 0 0 FFFFTFFFFFFFFFFF1 1 1
 81 1 123 186 127 44 0 120 111 107 128 82 6 124 0 831204082 31253298 0 0 0 80 1
 127 0 129 8001 0 0 0 0 3 5 0 0 0 FFFFTFTFFFFFFFFF2 81 1 111 185 127 14 0 108 0
 123 130 81 1 107 187 127 47 0 100 123 115 131 83 255 3 128 .792156862745098 .81
9607843137255 .933333333333333 81 1 115 188 127 56 0 112 107 119 132 83 3 131 .7
92156862745098 .819607843137255 .933333333333333 81 1 119 189 127 53 0 116 115 0
 133 83 3 132 .792156862745098 .819607843137255 .933333333333333 83 3 133 .79215
6862745098 .819607843137255 .933333333333333 83 3 130 .792156862745098 .81960784
3137255 .933333333333333 79 255 15 129 SDL/TYSA_COLOUR79 18 126 DOWNSTREAM_FACE_
ID82 6 121 0 831204082 31253298 0 0 0 82 6 117 0 701894003 31253298 0 0 0 82 6 1
13 0 701894003 31253298 0 0 0 82 6 109 0 831204082 31253298 0 0 0 79 14 105 SWEn
tUnchanged15 84 85 0 91 14 0 141 85 71 85 85 79 141 81 72 76 76 64 141 80 66 80
 80 72 40 22 73 0 1 22 .00492514531939558 .3375540839471625 ??.0872717731211417
 698761005015968e-21 .436482975435971 .0866447581603033 -.01044044005388838 .436
4829839858735 .0788590818229319 -.03738413058585785 .4364829989525205 .078304511
2672998 -.03853208771123225 .436483000600394 .0611275134006 -.0622879386698665 .
436482981718483 .03707060344331375 -.0790070639709321 .436482968196179 .00883660
88787348 -.0868229458122096 .4364829974908585 -.020409570710448 -.08485156048407
38 .4364829992054185 -.0473499465235367 -.0733099798844673 .436482966131976 -.06
89394557677209 -.0535132632978698 .436482980366644 -.0827667904732411 -.02767615
56143699 .436483000495057 -.0872717701224352 -1805626601702615e-22 .436482975898
6325 -.0850658865289147 .01949710674682575 .436482992745531 -.0738179496233863 .
046553943749281 .436482965235548 -.0542543487869128 .0683577535634606 .436482986
0983545 -.02856690385679825 .0824636493404968 .436483001929506 .0003500803547107
325 .0872710804720116 .4364829801622915 .02920972360461705 .0822382692081195 .43
64829717894975 .0547795954898133 .0679375197745456 .436482997383839 .07418537819
97359 .0459659647419384 .436482994360037 .0852186417319511 .01881872461111615 .4
36482964195304 .0872717731211417 698761005017695e-21 .4364829754359715 41 1 74 H
?.0872717731211417 698761005015968e-21 .436482975435971 204 44 75 2 .37334978908
793 .925178826172282 .354262882431871 .925178847355863 .3028932655214265 .925178
878330299 .30056826143259 .925178882207044 .246852034970693 .925178841382215 .19
3171442265141 .925178811237199 .1394912181885118 .925178879840631 .0857801286037
321 .925178882934729 .03207662623019345 .925178806522846 .978403793340372 .92517
8839751558 .924707603215268 .925178881577881 .873348854559932 .925178827415602 .
837489537027962 .92517886659492 .783798675146853 .925178806321351 .7301218755568
53 .925178851732749 .67642345169206 .925178886846014 .622709996823494 .925178840
666716 .569031214264825 .925178821444538 .51534838861745 .925178876314543 .46163
3855453177 .925178868770967 .407939368426757 .925178800153679 .37334978908793 .9
25178826172282 141 65 36 65 65 62 141 58 7 58 58 16 15 57 149 0 27 53 103 17 27
 0 57 27 27 0 24 9 0 0 -141 49 30 134 135 38 126 255 50 TF3 3 35 7 2 6 37 5 FTF2
 3 136 137 138 139 140 125 255 51 0 1 0 1 0 1 0 1 2 PPBBPPBB????0 0 0 0 45 255 7
35 136 -.0998949777292729 .00798938320145853 0 -.0715952790613356 -.005239047712
81375 .03944324302257525 -.02521352113279845 -.02321468991496435 .11271116124777
4 -.1370199095088444 -.0193051388315633 .224785716743747 .00945444699223571 .004
49866708946137 .334222251215418 -.0535369302980226 -.0468982346137372 .421901801
817579 -.0890481931292347 -.0808214347834641 .47 -.100084138551266 -.00509921856
000382 0 -.0703016519032388 -.01452622081497478 .03944324235386195 -.02197259451
89444 -.02630299729673105 .1127111615117474 -.1333347575294046 -.036999815700239
3 .224785716650055 .00878741916792479 .00569260684624227 .334222251371646 -.0469
674001514873 -.0534762615778354 .421901801410594 -.0777541644480327 -.0917386228
96943 .47 -.098984578612628 -.018206271263883 0 -.0680936043857294 -.02368584815
29521 .03944323740260185 -.0184276218514733 -.0290722418729877 .1127111631240866
 -.127907424287727 -.0543313850208375 .224785716972388 .00800286794660105 .00682
081315869697 .3342222475506585 -.0397503320578184 -.0594073160372678 .4219018145
209885 -.0653853560084151 -.1015436517063328 .47 -.0935304790538567 -.0371673920
4107835 0 -.0621641293849479 -.0365151185725041 .03944324047956515 -.01240175578
980988 -.03210858384320195 .112711162143718 -.114849822719871 -.0782408718605872
 .2247857167078715 .00651839735253247 .00825103167249084 .334222250239748 -.0273
9658885387585 -.066020602586674 .42190180535469 -.04431856719356035 -.1123483477
76818 .47 -.0844824679600069 -.0547001088299738 0 -.0538460251776409 -.047941112
687569 .0394432392062216 -.0058994230417405 -.0339111250722263 .1127111626122316
 -.0973791927963945 -.0991435997741991 .2247857166308355 .00478351232929666 .009
36411490288109 .334222250040613 -.01399024827472706 -.0700969348679779 .42190180
61883715 -.02154904390179585 -.1188358491169984 .47 -.072187616420907 -.07013077
74232258 0 -.0434584894030263 -.0575247696841255 .03944324024393425 .00082966681
5227139 -.03441042738304005 .112711162195862 -.0761659981769482 -.11623630978518
9 .2247857167962235 .00286470677395125 .0101174345195431 .334222249700214 -46158
2933301563e-19 -.0714793571552412 .4219018071372435 .0020488215298813 -.12075640
30228294 .47 -.0571187512517997 -.0828663534462196 0 -.03140095070491315 -.06489
77867676034 .0394432402487381 .00752684597843589 -.0335873819985643 .11271116228
17422 -.0520259480678146 -.128862141870214 .224785716536248 .000835836928669 .01
048190497827722 .334222250976037 .01389964356160226 -.0701148926113633 .42190180
3003913 .02556784411346315 -.1180363722436684 .47 -.03985477444357465 -.09241740
02919225 0 -.018136639604577 -.0697768088788406 .03944324053932865 .013934793412
34822 -.0314736004258676 .1127111619821564 -.02588648386063815 -.136535818127648
2 .2247857171259425 -.001225162198187998 .0104435658055792 .3342222482186345 .02
73113066403047 -.0660560051098539 .421901811892602 .0481043324703353 -.110780361
5364936 .47 -.02105921547147755 -.0984169430012923 0 -.00417536642913254 -.07197
43646096897 .03944324107431285 .0198072097526543 -.0281502824573728 .11271116188
79414 .001247786975746984 -.138962573028378 .2247857168535645 -.0032390887653756
25 .01000388975843252 .334222249795263 .0396733872947754 -.0594585662834858 .421
901806706352 .0687921695159904 -.0992670297663729 .47 -.001454398606478902 -.100
6343104719676 0 .00994636199431929 -.0714059587813261 .03944324043473675 .024918
49745204275 -.0237451993662298 .1127111620461412 .0283340119199525 -.13604898000
063 .22478571704389 -.00512849618074503 .00917974283114496 .3342222485732645 .05
05108778198978 -.0505762101302045 .4219018107593785 .0868363969379559 -.08393898
01337521 .47 .01820630063806135 -.0989844217975003 0 .0236858477273439 -.0680934
828396718 .03944323952898695 .0290721716973268 -.018427556155894 .11271116249869
76 .0543313888417421 -.127907210779316 .224785716634851 -.00682081966233235 .008
00285921729054 .334222250167074 .0594072371192239 -.0397502139917799 .4219018057
309245 .1015435101913952 -.0653851758915791 .47 .03716740144374265 -.09353054879
66207 0 .03651512239023555 -.0621641919818429 .0394432404718505 .032108583829808
2 -.0124018064893905 .1127111619752264 .0782409157502465 -.1148498997445324 .224
7857172161645 -.00825106507879239 .00651837577239808 .3342222477460715 .06602064
34849323 -.027396662865513 .421901813433314 .1123484357125432 -.0443186721695056
5 .47 .0547001559320074 -.0844824006776589 0 .0479411313890846 -.053845981767478
9 .03944324028731845 .03391109409776995 -.0058994230982841 .1127111622168542 .09
91436641410218 -.0973790665530351 .224785716689112 -.00936419592124367 .00478342
540437569 .334222250244604 .0700968519517289 -.01399026964702242 .42190180536744
3 .118835760025418 -.0215490291412078 .47 .0701308119105305 -.0721876046150894 0
 .0575247845799314 -.0434584928179184 .03944324097172255 .034410409731919 .00082
963556963717 .112711161818046 .116236367873169 -.0761659465047175 .2247857171669
985 -.01011748841415674 .002864623974524755 .3342222482132685 .0714793500361273
 -462210893030913e-19 .4219018118459195 .120756421564844 .00204876666349354 .47
 .0828663749779763 -.0571187008459742 0 .0648977997633567 -.0314009225161473 .03
944324082684835 .03358738020210175 .00752683184314078 .1127111618546586 .1288621
587287358 -.05202584493428 .2247857172078005 -.01048192801729726 .00083571861462
8422 .3342222479477805 .0701149140554249 .01389958941056216 .42190181272735 .118
036420285994 .02556782237673305 .47 .092417420359714 -.0398547531167276 0 .06977
6808660662 -.01813664427521295 .0394432417047436 .0314735698554996 .013934748272
8636 .1127111615776336 .136535849046348 -.02588642842323625 .2247857171243545 -.
0104435825393097 -.00122520362048091 .3342222487540845 .0660559880611229 .027311
28048727005 .4219018099855255 .1107803411847002 .0481043118151913 .47 .098416927
7884512 -.02105922090858645 0 .0719743773086718 -.004175366522767125 .0394432408
3964615 .02815033587122 .0198072175847077 .1127111619149314 .1389625371529116 .0
0124777195708396 .224785717015614 -.01000387026975832 -.00323908768782314 .33422
2248895123 .0594585821465918 .03967339404447195 .4219018096568365 .0992670483791
935 .0687921798389121 .47 .100634310341478 -.00145440049379032 0 .07140594355286
84 .00994635456832661 .0394432406914222 .02374516275441805 .02491848238470925 .1
12711161990347 .136048991164871 .02833401315003575 .224785716944649 -.0091797521
4421945 -.00512849733972261 .334222249175669 .0505762000183783 .050510867115113
 .4219018087700495 .0839389664444263 .0868363799029307 .47 .0989844063068632 .01
82063112318682 0 .0680934911418018 .0236858652552495 .03944323937031385 .0184275
9952313265 .02907219851740455 .1127111624958782 .127907171526326 .05433139053910
99 .224785716806985 -.00800284083171104 -.00682081435777374 .334222249251934 .03
975022159253195 .0594072522833454 .4219018087187395 .0653851817511236 .101543532
0849086 .47 .0935305696914912 .0371673709740754 0 .0621641855330689 .03651511118
44117 .0394432393723533 .01240175804520126 .03210860363788995 .1127111625092968
 .1148499586556754 .0782408698551366 .224785716765036 -.00651841505934744 -.0082
5103222465153 .3342222494583665 .0273966434561819 .0660206377667434 .42190180804
97555 .04431865854871345 .1123484103699482 .47 .0844824177411752 .05470012048367
01 0 .0538459944440952 .0479411161404912 .03944323982150645 .00589942340450791 .
03391111471368385 .1127111624004074 .0973791160795008 .0991436005383495 .2247857
166248135 -.00478349711048577 -.00936411367666642 .334222250348706 .013990221218
10352 .0700969154502035 .421901805099249 .0215489940332182 .1188358149346244 .47
 .072187644367144 .0701307709926065 0 .043458506503647 .0575247679876552 .039443
23991660795 -.000829667156327109 .03441043304024735 .1127111623129642 .076166040
9836285 .1162363094645704 .22478571678632 -.00286471577578772 -.0101174352168575
8 .3342222496005235 461720733168799e-19 .0714793675017091 .4219018075086565 -.00
2048795283507035 .1207564210792706 .47 .0571187357863944 .0828663568971782 0 .03
14009411839818 .0648977875815854 .03944324041273475 -.00752684593723332 .0335873
7886184655 .1127111622195128 .0520259245497198 .1288621419548238 .22478571655177
65 -.000835832465199764 -.01048190488688904 .3342222509742205 -.0138996495328825
 .0701148879397627 .4219018029854945 -.02556785560184835 .118036364217432 .47 .0
398547829698357 .092417398593039 0 .01813664496486035 .0697768085804681 .0394432
4046584555 -.01393479315648534 .03147360217128895 .112711162010492 .025886496639
4245 .136535818366498 .2247857171176445 .001225159989571932 -.0104435658926467 .
334222248226007 -.0273113033653345 .0660560077414941 .421901811879611 -.04810432
62878331 .1107803660506562 .47 .0210592107668625 .0984169435787648 0 .0041753632
50182655 .0719743645201108 .03944324109500815 -.019807210453155 .028150281431173
7 .1127111618799572 -.001247793684293312 .138962572392581 .2247857168559115 .003
239089561571845 -.01000388960330374 .3342222497931445 -.039673389422425 .0594585
645069302 .421901806710144 -.0687921732400518 .0992670266970527 .47 .00145440238
4084432 .1006343104173728 0 -.00994635941427358 .0714059591138752 .0394432404288
1055 -.02491849681232445 .0237452002044348 .112711162048539 -.02833400671962935
 .1360489810906194 .2247857170428895 .00512849566581184 -.00917974303791482 .334
222248575473 -.0505108762032318 .0505762117913668 .421901810753109 -.08683639416
22515 .0839389830052686 .47 -.0182063053573997 .0989844213562254 0 -.02368585085
775355 .0680934821513738 .0394432395305966 -.0290721722745133 .01842755521566795
 .1127111624976586 -.0543313952238765 .12790720865754 .224785716636271 .00682082
036331595 -.00800285881405598 .3342222501608565 -.0594072387997544 .039750211795
6173 .4219018057508175 -.1015435131326186 .0653851720655415 .47 -.03716739287194
72 .0935305502483975 0 -.03651511710766855 .0621641933652625 .03944324045704035
 -.0321085837829187 .01240180752166364 .1127111619826494 -.0782409040334509 .114
8499047529162 .2247857172094115 .00825106322029122 -.00651837697225032 .33422224
7772442 -.0660206412544079 .0273966663727184 .4219018133501005 -.112348431410705
4 .04431867850158325 .47 -.0547001714906812 .0844823976750709 0 -.04794114078071
78 .0538459791497876 .0394432402999295 -.0339110936875155 .00589942159322129 .11
27111622074394 -.0991436854586883 .0973790567972934 .224785716704052 .0093641996
1024228 -.00478342287815821 .334222250177124 -.0700968557647186 .013990263182237
74 .4219018055841445 -.1188357676573178 .0215490173871645 .47 -.0701307837901302
 .0721876102354143 0 -.0575247676826344 .0434584976923387 .03944324099557045 -.0
3441041072753975 -.00082963311173531 .11271116182552 -.1162363292462394 .0761659
646664561 .224785717120192 .01011748119137936 -.002864629591609675 .334222248453
3795 -.071479341367808 462359669784062e-19 .421901811064628 -.1207564044091428 -
.002048739819700065 .47 -.0828664255126094 .0571186906484008 0 -.064897830235865
5 .03140091332379695 .0394432406865474 -.03358737859704395 -.00752683619822709 .
1127111618722074 -.12886222784991 .0520258121632455 .224785717300491 .0104819398
4815246 -.000835708612720628 .334222247430149 -.0701149306980522 -.0138996182972
012 .421901814424842 -.1180364527570184 -.0255678733761657 .47 -.092417329151127
5 .03985477155562765 0 -.0697767526604983 .0181366626707479 .03944324216148015 -
.031473570310514 -.0139347394683285 .112711161468787 -.136535726657902 .02588648
657579565 .224785716976181 .01044357057369266 .00122518989806238 .33422224968680
95 -.0660559553197137 -.02731122457025665 .421901806896585 -.1107802817266086 -.
048104218389288 .47 -.0984171011772719 .02105918593669415 0 -.071974490890643 .0
04175323069721125 .0394432394087418 -.02815035040113955 -.0198072419791109 .1127
111623321664 -.138962764592883 -.00124788004420947 .224785717253463 .01000388504
474672 .003239111206615005 .3342222470819765 -.0594586424658981 -.03967350583286
795 .4219018157419435 -.0992671620204951 -.0687923580537908 .47 -.09989497772927
29 .00798938320145853 0 -.0715952790613356 -.00523904771281375 .0394432430225752
5 -.02521352113279845 -.02321468991496435 .112711161247774 -.1370199095088444 -.
0193051388315633 .224785716743747 .00945444699223571 .00449866708946137 .3342222
51215418 -.0535369302980226 -.0468982346137372 .421901801817579 -.08904819312923
47 -.0808214347834641 .47 -.100084138551266 -.00509921856000382 0 -.070301651903
2388 -.01452622081497478 .03944324235386195 -.0219725945189444 -.026302997296731
05 .1127111615117474 -.1333347575294046 -.0369998157002393 .224785716650055 .008
78741916792479 .00569260684624227 .334222251371646 -.0469674001514873 -.05347626
15778354 .421901801410594 -.0777541644480327 -.091738622896943 .47 127 255 37 13
7 1 1 2 1 1 1 1 1 1 1 1 1 1 1 1 1 1 1 1 1 1 1 1 1 1 1 1 1 1 1 1 1 1 1 2 1 1 127
 5 138 4 1 1 1 4 128 255 37 139 -.0625 -.03125 0 .03125 .0625 .09375 .125 .15625
 .1875 .21875 .25 .28125 .3125 .34375 .375 .40625 .4375 .46875 .5 .53125 .5625 .
59375 .625 .65625 .6875 .71875 .75 .78125 .8125 .84375 .875 .90625 .9375 .96875
 1 1.03125 1.0625 128 5 140 0 .246257866880458 .451237419600187 .672172991944658
 1 141 134 16 141 49 38 141 135 64 49 142 38 141 142 60 135 143 38 141 143 66 14
2 141 38 141 141 42 143 134 38 15 26 135 0 24 44 0 141 43 18 43 43 31 40 22 39 0
 1 22 .00540722352528494 .3718342350173485 ??-.0791135156179795 .001143606588896
46 .0304434360801253 -.0770823003988063 -.0178485775783033 .03044375990123745 -.
0668342111751397 -.04234918434326205 .0304434575147229 -.0588995260495003 -.0528
312497183833 .03044332605233595 -.0380863129303567 -.0693523210436128 .030443499
64656865 -.01299262732631464 -.0780477617274948 .03044371434456295 .013570963312
03366 -.0779493248600552 .03044345271654975 .03861875930425865 -.069057254105372
5 .03044332013613785 .059297231784724 -.0523843818819973 .0304436934149066 .0732
928070518813 -.02980638414951805 .03044361454729805 .0791135623111141 -.00114336
3189272352 .0304434975901808 .078027402299162 .0131147380483807 .030443423861619
9 .0692819969762523 .0382141307407077 .0304433376056449 .0527316007351611 .05898
86182982469 .0304437133673267 .03023964956690855 .0731151154457433 .030443583239
7144 .0177225269573581 .077111506510564 .03044342433729505 -.00881342074827754 .
0786297624822486 .0304433358702484 -.03433817090001335 .071282319369893 .0304437
1142259305 -.0559915802261149 .0559034835137465 .03044358398449245 -.07134247916
90557 .0342132463470087 .03044331696073495 -.0786467090062502 .00866106053453307
 .03044347379212995 -.0791135156179795 .00114360658889646 .0304434360801253 41 1
 40 H?-.0791135156179795 .00114360658889646 .0304434360801253 204 44 41 3 .98435
7354595999 .0631323855388273 .0228719754125389 .0631330565803629 .07654721271608
15 .0631324319294449 .1030224446766472 .0631321604457023 .1567290628170815 .0631
325185329522 .210403751723452 .0631329616676431 .264091654322295 .06313242180753
42 .317811051031089 .0631321475769497 .3714963586664465 .0631329184789004 .42518
4382209248 .0631327550261929 .484357757808893 .0631325138614488 .513160620929735
 .063132362119412 .566880030118926 .063132184476416 .62056195647325 .06313296050
80487 .674242469653789 .0631326911294856 .700703608573899 .0631323625130871 .754
423009392329 .0631321801379002 .808105022600074 .0631329562489166 .8617829554231
27 .0631326924585806 .915489319234754 .0631321401852495 .969200947723408 .063132
4646569965 .984357354595999 .0631323855388273 19 15 1 0 1 0 8 5 0 S0 141 19 42 1
9 19 7 40 21 20 0 1 21 .004241265858026395 .3718301266260915 ??-.060465066103428
8 -.01400209821428292 .02 -.0616923932123689 .00679423673073088 .02 -.0559622708
497289 .02683853801977735 .02 -.04392145124247585 .0438517807345883 .02 -.026936
59737099895 .0559152896954181 .02 -.00691251607786486 .0616791490026371 .02 .013
90235724053364 .0604879933004796 .02 .02372035529380335 .0573534413184238 .02 .0
4136332868651965 .0462728311920863 .02 .0543468898867815 .02997524271618865 .02
 .0612065990913679 .01028711051081316 .02 .0620585742796248 -.000896905627725362
 .02 .057492898546765 -.0233803584401533 .02 .0465148373056369 -.041091036087395
95 .02 .0302925816054084 -.0541706215290876 .02 .01064512867171284 -.06114534357
54105 .02 -.01019076142517584 -.0612228284984682 .02 -.02987598748158625 -.05440
16063062703 .02 -.0462027788134677 -.04144136163338005 .02 -.0524251350280974 -.
03322160374631355 .02 -.0604650661034288 -.01400209821428292 .02 41 1 21 H?-.060
4650661034288 -.01400209821428292 .02 204 84 22 4 .0228719754125389 .06313305658
03629 -.0604650661034288 -.01400209821428292 .969200947723408 .0631324646569965
 -.0616923932123689 .00679423673073088 .915489319234754 .0631321401852495 -.0559
622708497289 .02683853801977735 .861782955423127 .0631326924585806 -.04392145124
247585 .0438517807345883 .808105022600074 .0631329562489166 -.02693659737099895
 .0559152896954181 .754423009392329 .0631321801379002 -.00691251607786486 .06167
91490026371 .700703608573899 .0631323625130871 .01390235724053364 .0604879933004
796 .674242469653789 .0631326911294856 .02372035529380335 .0573534413184238 .620
56195647325 .0631329605080487 .04136332868651965 .0462728311920863 .566880030118
926 .063132184476416 .0543468898867815 .02997524271618865 .513160620929735 .0631
32362119412 .0612065990913679 .01028711051081316 .484357757808893 .0631325138614
488 .0620585742796248 -.000896905627725362 .425184382209248 .0631327550261929 .0
57492898546765 -.0233803584401533 .3714963586664465 .0631329184789004 .046514837
3056369 -.04109103608739595 .317811051031089 .0631321475769497 .0302925816054084
 -.0541706215290876 .264091654322295 .0631324218075342 .01064512867171284 -.0611
453435754105 .210403751723452 .0631329616676431 -.01019076142517584 -.0612228284
984682 .1567290628170815 .0631325185329522 -.02987598748158625 -.054401606306270
3 .1030224446766472 .0631321604457023 -.0462027788134677 -.04144136163338005 .07
65535650973701 .0631324323706534 -.0524251350280974 -.03322160374631355 .0228719
754125389 .0631330565803629 ??141 17 7 17 17 6 74 4 CI16 index_map_offset0 0 1 d
CCZ20 13 12 0 0 144 145 146 147 100 97 148 149 150 11 119 2 0 0 0 0 0 0 0 0 81 5
 144 11 151 1 0 145 0 0 152 0 0 0 0 81 2 145 69 153 1 144 146 0 0 0 154 81 2 146
 70 155 1 145 147 0 0 156 0 81 2 147 71 157 1 146 148 0 0 0 158 81 2 148 124 159
 1 147 149 0 0 0 0 81 1 149 165 160 1 148 150 0 0 161 81 2 150 172 162 1 149 11
 0 0 163 0 81 2 11 184 164 1 150 2 0 0 0 165 80 2 164 166 167 9000 0 0 0 0 3 5 0
 0 0 FFTFFFFFFFFFFFFF9 1 82 1 165 1 79 24 167 BODY_IN_LIGHTWEIGHT_PERM80 2 162 1
68 169 8004 0 0 0 0 3 5 0 0 0 FFTFFFFFFFFFFFFF2 3 83 1 163 1 79 16 169 SDL/TYSA_
DENSITY80 1 160 170 171 9000 1 1 1 1 1 1 1 1 0 FFTFFFFFFFFFFFFF1 82 1 161 53036
 79 10 171 BODY_MATCH80 2 159 172 173 9000 0 0 0 0 3 5 0 0 0 FFTFFFFFFFFFFFFF9 1
 79 16 173 BODY_RECIPE_200180 2 157 174 175 9000 0 0 0 0 3 5 0 0 0 FFTFFFFFFFFFF
FFF9 1 82 1 158 106 79 19 175 ENT_TIME_STAMP_200180 2 155 176 177 9000 0 0 0 0 3
 5 0 0 0 FFTFTTTFFTFFFFFF10 10 98 255 7 156 70 105 108 108 101 116 50 79 23 177
 SWIMPLICITBODYNAME_ID_U80 2 153 178 179 9000 0 0 0 0 3 5 0 0 0 FFTFFFFFFFFFFFFF
9 1 82 1 154 59 79 30 179 LAST_BODY_MODIFYING_FEATURE_ID80 5 151 180 181 9000 0
 0 0 0 3 6 0 0 0 FFTTTTTTFTTFTTFF2 2 2 2 2 83 1 152 1 79 19 181 BODY_SCALING_FAC
TOR80 2 10 182 183 9000 0 0 0 0 3 5 0 0 0 FFTFFFFFFFFFFFFF9 1 82 1 12 101 79 12
 183 ATOM_ID_20011 0 
