**ABCDEFGHIJKLMNOPQRSTUVWXYZabcdefghijklmnopqrstuvwxyz**************************
**PARASOLID !"#$%&'()*+,-./:;<=>?@[\]^_`{|}~0123456789**************************
**PART1;
MC=AMD64;
MC_MODEL=Intel64 Family 6 Model 154 Stepping 3, GenuineIntel;
MC_ID=unknown;
OS=Windows_NT;
OS_RELEASE=unknown;
FRU=Parasolid Version 35.1, build 251, 11- 4-2023;
APPL=SOLIDWORKS 2024-2024203;
SITE=;
USER=unknown;
FORMAT=text;
GUISE=transmit;
KEY=Themis;
FILE=Themis.x_t;
DATE=Tue May 19 16:45:07 2026;
**PART2;
SCH=SCH_3501251_35102;
USFLD_SIZE=0;
**PART3;
**END_OF_HEADER*****************************************************************
T51 : TRANSMIT FILE created by modeller version 350125123 SCH_3501251_35102_1300
6231 0 12 36 CCCI7 lattice222 0 CCCI4 mesh1006 0 I8 polyline1008 0 CCCCCCCDI5 ow
ner1040 0 CCCI16 boundary_lattice222 0 CCCI13 boundary_mesh1006 0 I17 boundary_p
olyline1008 0 CCCA16 index_map_offset0 0 1 dA9 index_map82 0 A17 node_id_index_m
ap82 0 A20 schema_embedding_map82 0 A5 child12 0 A14 lowest_node_id0 0 1 dA16 me
sh_offset_data206 0 Z1 477 2 3 0 0 0 0 0 0 0 1e3 1e-8 0 4 0 1 0 1 1 5 0 6 7 8 0
 0 9 10 11 0 0 0 0 0 0 0 81 255 2 2 455 12 1 13 0 0 0 0 14 70 11 CI9 list_type0
 0 1 uI10 notransmit0 0 1 lCCCDCCDI12 finger_index0 0 1 dI12 finger_block1012 0
 CZ3 0 4 T1 0 0 12 20 1 15 15 13 255 5 216 0 1 0 16 0 0 17 0 67 255 6 206 0 16 1
8 0 0 +19 0 0 -1 .02020336891277635 30 255 7 215 0 10 20 0 0 +.00178939541325796
5 -.00155706494199201 .03 0 0 -1 29 255 8 165 0 21 22 0 -.0021541409046596 .0083
1597320211987 0 19 9 CCCCCCI5 frame230 0 CA5 owner12 0 Z9 75 0 1 17 0 23 0 V0 16
 255 10 182 0 ?24 0 25 7 0 0 1 18 255 11 70 0 26 0 27 28 ?1 17 255 26 0 29 30 31
 11 32 33 0 34 +18 27 67 0 35 11 36 37 ?1 29 28 72 0 11 37 38 -.0021541409046596
 .00831597320211987 .03 29 37 69 0 27 39 28 .003799060773870535 .022581177267700
15 .03 29 38 173 0 40 28 41 .001789395413257965 -.00155706494199201 0 18 40 157
 0 24 42 0 38 ?1 29 41 172 0 42 38 43 .01634733241058465 -.00474479354295048 0 1
8 42 156 0 44 45 40 41 ?1 29 43 171 0 45 41 46 .02624617316541635 -.002950098120
833535 0 18 45 155 0 47 48 42 43 ?1 29 46 170 0 48 43 49 .03662537618786735 .003
53011861192113 0 18 48 154 0 50 51 45 46 ?1 29 49 169 0 51 46 52 .04288653292374
295 .0225811772666008 0 18 51 153 0 53 54 48 49 ?1 29 52 168 0 54 49 55 .0366253
7619038175 .04130488889645535 0 18 54 152 0 56 57 51 52 ?1 29 55 167 0 57 52 22
 .0163473324105238 .0371741685038391 0 18 57 151 0 58 59 54 55 ?1 29 22 166 0 59
 55 8 .003799060773870535 .02258117726770015 0 18 59 150 0 60 21 57 22 ?1 17 60
 0 61 62 32 59 35 63 0 64 +18 21 149 0 62 65 59 8 ?1 17 62 0 61 34 60 21 64 66 0
 67 +18 65 46 0 30 68 21 69 ?1 17 30 0 29 70 26 65 71 72 0 73 +18 68 49 0 74 75
 65 76 ?1 29 69 48 0 65 0 76 .001789395413257965 -.00155706494199201 .03 29 76 5
1 0 68 69 77 .01634733241058465 -.00474479354295048 .03 29 77 54 0 75 76 78 .026
24617316541635 -.002950098120833535 .03 18 75 52 0 79 80 68 77 ?1 29 78 57 0 80
 77 81 .03662537618786735 .00353011861192113 .03 18 80 55 0 82 83 75 78 ?1 29 81
 60 0 83 78 84 .04288653292374295 .0225811772666008 .03 18 83 58 0 85 86 80 81 ?
1 29 84 63 0 86 81 39 .03662537619038175 .04130488889645535 .03 18 86 61 0 87 36
 83 84 ?1 29 39 66 0 36 84 37 .0163473324105238 .0371741685038391 .03 18 36 64 0
 88 27 86 39 ?1 17 88 0 89 90 91 36 58 92 0 93 -15 255 89 187 0 91 94 0 17 90 0
 89 56 88 86 93 95 0 0 +17 91 0 89 88 56 57 96 97 0 98 -17 58 0 99 100 101 57 88
 92 0 91 +16 92 176 0 ?58 102 63 103 0 0 1 17 93 0 29 31 104 36 90 95 0 101 -15
 29 4 0 30 105 0 17 31 0 29 26 93 27 101 106 0 0 -17 104 0 29 93 107 86 108 109
 0 90 -16 95 33 0 ?90 106 109 110 0 0 1 17 101 0 99 58 35 36 31 106 0 0 +15 99 1
85 0 100 111 0 17 35 0 99 101 100 27 60 63 0 32 -16 106 38 0 ?101 33 95 112 109
 113 1 16 33 41 0 ?26 114 106 115 0 0 1 134 255 112 12 0 113 19 116 117 +118 119
 16 109 30 0 ?108 95 120 112 121 106 1 16 113 10 0 ?122 123 72 112 106 121 1 17
 122 0 124 24 74 65 70 113 0 0 +16 123 15 0 ?79 121 113 116 0 0 1 16 72 5 0 ?30
 113 66 19 0 0 1 16 121 21 0 ?125 120 123 112 113 109 1 17 125 0 126 47 82 75 12
7 121 0 0 +16 120 24 0 ?128 109 121 129 0 0 1 17 128 0 130 50 85 80 107 120 0 0
 +134 129 26 0 120 116 110 131 +132 133 134 116 17 0 123 112 129 134 +135 136 13
4 110 35 0 95 129 115 137 +138 139 141 255 131 140 131 131 129 136 255 132 3 7 3
 5 6 FFF1 141 142 143 135 255 133 2 0 45 255 21 141 .0428865329237225 .022581177
26714265 .03 .0411707401090433 -.0191040709511599 .03 .0952128016032689 .0663496
847233153 .03 .103475442467534 .0196996830347848 .03 .0705200334192413 .01018872
92929698 .03 .0522302765281856 -.00850120408427998 .03 .0366253761903845 .003530
118614687185 .03 127 255 5 142 4 1 1 1 4 128 255 5 143 0 .39752754190238 .492715
420603709 .68458957266247 1 67 140 204 0 144 145 18 0 +129 0 0 -1 ?14 255 144 19
2 146 ?147 148 130 5 140 +0 0 147 148 23 67 145 203 0 94 149 140 0 +110 0 0 -1 .
0371823024925244 67 18 205 0 150 140 6 0 +116 0 0 -1 ?14 150 196 151 ?148 152 15
3 5 18 -0 0 148 152 23 81 1 151 459 154 150 155 0 146 156 157 14 148 194 156 ?14
4 150 126 5 149 +147 152 144 150 23 14 152 198 158 ?150 16 124 5 149 +148 111 15
0 16 23 15 153 195 0 159 150 0 13 23 76 0 0 0 0 0 0 9 16 14 16 200 160 ?152 0 16
1 5 6 -0 0 152 0 23 81 1 160 465 154 16 162 0 158 163 164 15 161 199 0 165 16 0
 17 165 0 161 73 67 40 166 167 0 168 +17 73 0 161 71 165 65 24 10 0 122 -17 67 0
 161 165 71 21 34 114 0 166 +17 166 0 169 64 168 21 165 167 0 0 -16 167 144 0 ?1
65 170 0 171 0 0 1 17 168 0 169 166 172 40 173 170 0 0 +15 169 101 0 166 174 0 1
7 172 0 169 168 175 42 159 176 0 173 -17 173 0 124 74 24 42 168 170 0 0 -16 170
 139 0 ?168 176 167 177 178 179 1 16 176 133 0 ?159 179 170 180 0 0 1 134 177 16
3 0 170 171 180 0 +181 182 16 178 107 0 ?98 66 97 177 183 170 1 16 179 128 0 ?17
5 184 176 177 170 183 1 17 175 0 169 172 185 45 186 179 0 0 +16 184 122 0 ?185 1
83 179 187 0 0 1 16 183 117 0 ?188 97 184 177 179 178 1 17 188 0 169 185 96 51 1
89 183 0 0 +16 97 112 0 ?96 178 183 190 0 0 1 17 96 0 169 188 98 54 91 97 0 0 +1
34 190 160 0 97 187 191 0 +192 193 134 187 161 0 184 180 190 0 +194 195 134 191
 159 0 66 190 196 0 +197 198 136 192 3 8 3 6 6 FFF1 199 200 201 135 193 2 0 45 2
4 199 .01634733241052685 .03717416850384185 0 .0315192517882836 .118308236458277
 0 -.0491189238391436 .0142987565742386 0 -.0983096763607942 .0955748027394272 0
 -.02240543027799645 .0757230430633421 0 .02522573428237475 .111817153468221 0 .
0576934325959156 .0587423991897701 0 .03662537619038175 .04130488889645535 0 127
 6 200 4 1 1 1 1 4 128 6 201 0 .3797016968040545 .458328450509859 .6560107209641
76 .794180385663004 1 16 66 102 0 ?62 72 178 191 0 0 1 30 196 207 0 114 191 202
 0 +-.0021541409046596 .00831597320211987 .03 0 0 -1 136 197 3 7 3 5 6 FFF1 203
 204 205 135 198 2 0 45 21 203 .003799060773867625 .0225811772676957 0 -.0119618
5142584556 .0147468108442132 0 -.0246292292510041 .0543164263030353 0 -.05013804
94546869 .03259606706562415 0 -.03796232045658575 .00128387811577988 0 -.0097085
216514881 .0213628316327642 0 -.00215414090465562 .00831597320215366 0 127 5 204
 4 1 1 1 4 128 5 205 0 .3737368945456455 .498780185688158 .665504114965135 1 16
 114 174 0 ?67 63 33 196 0 0 1 30 202 208 0 63 196 103 0 +.003799060773870535 .0
2258117726770015 .03 0 0 -1 16 63 175 0 ?60 92 114 202 0 0 1 30 103 209 0 92 202
 206 0 +.0163473324105238 .0371741685038391 .03 0 0 -1 30 206 210 0 102 103 207
 0 +.03662537619038175 .04130488889645535 .03 0 0 -1 16 102 177 0 ?56 208 92 206
 0 0 1 30 207 211 0 208 206 209 0 +.04288653292374295 .0225811772666008 .03 0 0
 -1 16 208 178 0 ?53 210 102 207 0 0 1 30 209 212 0 210 207 211 0 +.036625376187
86735 .00353011861192113 .03 0 0 -1 16 210 179 0 ?50 212 208 209 0 0 1 30 211 21
3 0 212 209 20 0 +.02624617316541635 -.002950098120833535 .03 0 0 -1 16 212 180
 0 ?47 25 210 211 0 0 1 30 20 214 0 25 211 7 0 +.01634733241058465 -.00474479354
295048 .03 0 0 -1 16 25 181 0 ?44 10 212 20 0 0 1 17 44 0 153 159 213 42 74 25 0
 172 +17 159 0 153 214 44 45 172 176 0 175 +17 213 0 153 44 214 68 79 123 0 70 -
17 74 0 124 122 173 68 44 25 0 213 -15 124 197 0 173 152 0 17 214 0 153 213 159
 75 47 212 0 125 -17 79 0 29 127 70 75 213 123 0 214 +17 70 0 29 79 30 68 122 11
3 0 0 -17 127 0 29 107 79 80 125 121 0 128 -17 107 0 29 104 127 83 128 120 0 108
 -17 108 0 215 53 87 83 104 109 0 0 +15 215 189 0 189 147 0 17 53 0 215 189 108
 51 85 208 0 216 +17 87 0 215 108 189 86 56 102 0 104 -17 189 0 215 87 53 54 188
 183 0 96 -17 56 0 89 91 90 54 87 102 0 189 +17 85 0 130 128 216 83 53 208 0 107
 -17 216 0 130 85 50 51 185 184 0 188 -15 130 191 0 216 144 0 17 50 0 130 216 12
8 48 82 210 0 186 +17 185 0 169 175 188 48 216 184 0 0 +17 82 0 126 125 186 80 5
0 210 0 127 -17 186 0 126 82 47 48 175 179 0 185 -15 126 193 0 186 148 0 17 47 0
 126 186 125 45 214 212 0 159 +14 147 190 163 ?94 144 215 5 149 +111 148 94 144
 23 81 1 163 467 154 147 217 0 160 218 219 14 94 188 218 ?111 147 89 5 145 +0 0
 111 147 23 67 149 202 0 111 220 145 0 +112 0 0 -1 ?14 111 186 221 ?222 94 99 5
 149 +152 147 222 94 23 81 1 221 471 154 111 223 0 218 224 225 14 222 184 224 ?1
05 111 61 5 220 -0 0 105 111 23 81 1 224 473 154 222 226 0 221 227 228 14 105 1
 227 ?174 222 29 5 229 +0 0 174 222 23 15 61 183 0 62 222 0 67 220 201 0 222 230
 149 0 +115 0 0 -1 .01593442115947345 50 255 230 158 0 174 229 220 0 +0 0 0 0 0
 1 1 0 0 134 115 43 0 33 110 171 231 +232 233 134 171 164 0 167 115 177 0 +234 2
35 141 231 220 231 231 115 136 232 3 7 3 5 6 FFF1 236 237 238 135 233 2 0 45 21
 236 .003799060773867625 .0225811772676957 .03 -.01196185142584556 .014746810844
2132 .03 -.0246292292510041 .0543164263030353 .03 -.0501380494546869 .0325960670
6562415 .03 -.03796232045658575 .00128387811577988 .03 -.0097085216514881 .02136
28316327642 .03 -.00215414090465562 .00831597320215366 .03 127 5 237 4 1 1 1 4 1
28 5 238 0 .3737368945456455 .498780185688158 .665504114965135 1 136 234 3 8 3 6
 6 FFF1 239 240 241 135 235 2 0 45 24 239 -.002154140904655635 .0083159732021536
6 0 -.03830003709211865 .02851812415113425 0 -.00645183758527594 -.0447848874978
756 0 -.0475300003443197 -.0245362154330711 0 -.037215881755889 -.06009965507673
51 0 .00210990390872272 -.03925731811232885 0 -.00494451225157499 -.014149308656
5066 0 .00178939541340729 -.001557064942094955 0 127 6 240 4 1 1 1 1 4 128 6 241
 0 .317739322018853 .4144161841323325 .536904124135622 .721899268229126 1 14 174
 100 242 ?0 105 169 5 230 -0 0 0 105 23 50 229 3 0 105 0 230 0 +0 0 .03 0 0 1 1
 0 0 81 1 242 477 154 174 243 0 227 0 244 80 7 CCCCCDI12 legal_owners0 16 1 lCZ1
 154 245 246 9000 1 1 1 1 1 1 1 1 0 FFFFTFTFFFFFFFFF1 81 3 243 476 247 174 248 2
42 249 0 250 0 0 81 1 227 475 154 105 249 0 224 242 251 82 255 1 244 -374275991
 81 3 249 474 247 105 252 227 226 243 253 0 0 82 1 251 -387055511 80 3 247 254 2
55 9000 0 0 0 0 3 5 0 0 0 FFFFTFFFFFFFFFFF1 1 1 81 1 252 409 256 105 0 249 257 2
48 258 81 3 226 472 247 222 257 224 223 249 259 0 0 82 6 253 0 252823018 3125447
9 0 0 0 81 1 257 408 256 222 0 226 260 252 261 81 3 223 470 247 111 260 221 262
 226 263 0 0 82 6 259 0 252823018 31254479 0 0 0 81 1 260 407 256 111 0 223 264
 257 265 81 3 262 468 247 94 264 218 217 223 266 0 0 82 6 263 0 252823018 312544
79 0 0 0 81 1 264 406 256 94 0 262 267 260 268 81 1 218 469 154 94 262 0 163 221
 269 81 3 217 466 247 147 267 163 162 262 270 0 0 82 6 266 0 252823018 31254479
 0 0 0 81 1 267 405 256 147 0 217 271 264 272 81 3 162 464 247 16 273 160 274 21
7 275 0 0 82 6 270 0 252823018 31254479 0 0 0 81 1 273 400 256 16 0 162 0 276 27
7 81 3 274 462 247 152 276 158 278 162 279 0 0 82 6 275 0 252823018 31254479 0 0
 0 81 1 276 401 256 152 0 274 273 280 281 81 1 158 463 154 152 274 0 156 160 282
 81 3 278 460 247 148 283 156 155 274 284 0 0 82 6 279 0 252823018 31254479 0 0
 0 81 1 283 403 256 148 0 278 280 271 285 81 1 156 461 154 148 278 0 151 158 286
 81 3 155 458 247 150 280 151 287 278 288 0 0 82 6 284 0 252823018 31254479 0 0
 0 81 1 280 402 256 150 0 155 276 283 289 81 3 287 456 247 144 271 146 0 155 290
 0 0 82 6 288 0 252823018 31254479 0 0 0 81 1 271 404 256 144 0 287 283 267 291
 81 1 146 457 154 144 287 0 0 151 292 82 6 290 0 252823018 31254479 0 0 0 82 1 2
92 -371589015 80 1 256 0 293 8001 0 0 0 0 3 5 0 0 0 FFFFTFTFFFFFFFFF2 83 255 3 2
91 .792156862745098 .819607843137255 .933333333333333 79 255 15 293 SDL/TYSA_COL
OUR83 3 289 .792156862745098 .819607843137255 .933333333333333 82 1 286 -3714579
43 83 3 285 .792156862745098 .819607843137255 .933333333333333 82 1 282 -3709991
91 83 3 281 .792156862745098 .819607843137255 .933333333333333 83 3 277 .7921568
62745098 .819607843137255 .933333333333333 83 3 272 .792156862745098 .8196078431
37255 .933333333333333 82 1 269 -371851159 83 3 268 .792156862745098 .8196078431
37255 .933333333333333 83 3 265 .792156862745098 .819607843137255 .9333333333333
33 83 3 261 .792156862745098 .819607843137255 .933333333333333 81 1 248 410 256
 174 0 243 252 0 294 83 3 258 .792156862745098 .819607843137255 .933333333333333
 83 3 294 .792156862745098 .819607843137255 .933333333333333 79 18 255 DOWNSTREA
M_FACE_ID82 6 250 0 252823018 31254479 0 0 0 79 14 246 SWEntUnchanged82 1 228 -3
72309911 82 1 225 -372047767 82 1 219 -371720087 134 180 162 0 176 177 187 0 +29
5 296 136 194 3 7 3 5 6 FFF1 297 298 299 135 195 2 0 45 21 297 .0428865329237225
 .02258117726714265 0 .0411707401090433 -.0191040709511599 0 .0952128016032689 .
0663496847233153 0 .103475442467534 .0196996830347848 0 .0705200334192413 .01018
87292929698 0 .0522302765281856 -.00850120408427998 0 .0366253761903845 .0035301
18614687185 0 127 5 298 4 1 1 1 4 128 5 299 0 .39752754190238 .492715420603709 .
68458957266247 1 136 295 3 7 3 5 6 FFF1 300 301 302 135 296 2 0 45 21 300 .01634
733241052675 -.00474479354295302 16940658945086e-34 .0225929198503504 -.00189963
282641715 16940658945086e-34 -.001004557444342892 -.1008824619459308 16940658945
086e-34 .0669873218484975 -.0580247800233918 16940658945086e-34 .006796592927192
4 -.0451948862804034 16940658945086e-34 .0605816640787153 -.00841564760061187 16
940658945086e-34 .02624617316544015 -.0029500981208256 16940658945086e-34 127 5
 301 4 1 1 1 4 128 5 302 0 .42134682826166 .574233996757574 .715738256963859 1 1
7 98 0 169 96 64 57 100 178 0 0 +17 64 0 169 98 166 59 62 66 0 100 -17 100 0 99
 35 58 59 98 178 0 0 -136 181 3 8 3 12 2 TTF1 303 304 305 135 182 2 0 45 24 303
 .0405193749176735 -.00649471581353627 0 -.01560265684186995 -.00623655935929766
 0 .00825281250137218 .03338560619330835 0 .03270366514566895 .0491968839604821
 0 .0461214362941767 .0263429813531208 0 .0405193749176735 -.00649471581353627 0
 -.01560265684186995 -.00623655935929766 0 .00825281250137218 .03338560619330835
 0 127 12 304 1 1 1 1 1 1 1 1 1 1 1 1 128 12 305 -.579885440156585 -.47868158727
7397 -.2335488533889025 0 .292015862810025 .4201145598434155 .521318412722603 .7
66451146611098 1 1.292015862810024 1.420114559843416 1.521318412722605 17 24 0 1
24 173 122 40 73 10 0 165 +17 71 0 161 67 73 11 30 72 0 0 -17 34 0 61 32 62 11 6
7 114 0 71 -17 32 0 61 60 34 27 26 33 0 31 -82 1 164 -370802583 82 1 157 -371326
871 141 137 145 137 137 110 136 138 3 8 3 6 6 FFF1 306 307 308 135 139 2 0 45 24
 306 .01634733241052685 .03717416850384185 .03 .0315192517882836 .11830823645827
7 .03 -.0491189238391436 .0142987565742386 .03 -.0983096763607942 .0955748027394
272 .03 -.02240543027799645 .0757230430633421 .03 .02522573428237475 .1118171534
68221 .03 .0576934325959156 .0587423991897701 .03 .03662537619038175 .0413048888
9645535 .03 127 6 307 4 1 1 1 1 4 128 6 308 0 .3797016968040545 .458328450509859
 .656010720964176 .794180385663004 1 141 134 18 134 134 116 136 135 3 7 3 5 6 FF
F1 309 310 311 135 136 2 0 45 21 309 .01634733241052675 -.00474479354295302 .03
 .0225929198503504 -.00189963282641715 .03 -.001004557444342892 -.10088246194593
08 .03 .0669873218484975 -.0580247800233918 .03 .0067965929271924 -.045194886280
4034 .03 .0605816640787153 -.00841564760061187 .03 .02624617316544015 -.00295009
81208256 .03 127 5 310 4 1 1 1 4 128 5 311 0 .42134682826166 .574233996757574 .7
15738256963859 1 134 19 7 0 72 0 112 312 +313 314 141 312 6 312 312 19 136 313 3
 8 3 6 6 FFF1 315 316 317 135 314 2 0 45 24 315 -.002154140904655635 .0083159732
0215366 .03 -.03830003709211865 .02851812415113425 .03 -.00645183758527594 -.044
7848874978756 .03 -.0475300003443197 -.0245362154330711 .03 -.037215881755889 -.
0600996550767351 .03 .00210990390872272 -.03925731811232885 .03 -.00494451225157
499 -.0141493086565066 .03 .00178939541340729 -.001557064942094955 .03 127 6 316
 4 1 1 1 1 4 128 6 317 0 .317739322018853 .4144161841323325 .536904124135622 .72
1899268229126 1 141 117 149 117 117 112 136 118 3 8 3 12 2 TTF1 318 319 320 135
 119 2 0 45 24 318 .0405193749176735 -.00649471581353627 .03 -.01560265684186995
 -.00623655935929766 .03 .00825281250137218 .03338560619330835 .03 .032703665145
66895 .0491968839604821 .03 .0461214362941767 .0263429813531208 .03 .04051937491
76735 -.00649471581353627 .03 -.01560265684186995 -.00623655935929766 .03 .00825
281250137218 .03338560619330835 .03 127 12 319 1 1 1 1 1 1 1 1 1 1 1 1 128 12 32
0 -.579885440156585 -.478681587277397 -.2335488533889025 0 .292015862810025 .420
1145598434155 .521318412722603 .766451146611098 1 1.292015862810024 1.4201145598
43416 1.521318412722605 19 17 217 0 1 0 9 5 0 S0 74 4 CI16 index_map_offset0 0 1
 dCCZ20 15 12 0 0 321 322 243 323 324 242 325 326 327 13 248 2 0 0 0 0 0 0 0 0 8
1 2 321 73 328 1 0 322 0 0 0 329 81 5 322 74 330 1 321 323 0 0 331 0 0 0 0 81 2
 323 295 332 1 322 324 0 0 0 333 81 2 324 296 334 1 323 325 0 0 335 0 81 1 325 3
08 336 1 324 326 0 0 337 81 2 326 322 338 1 325 327 0 0 339 0 81 2 327 364 340 1
 326 13 0 0 0 341 81 2 13 371 342 1 327 2 0 0 0 0 80 2 342 343 344 9000 0 0 0 0
 3 5 0 0 0 FFTFFFFFFFFFFFFF9 1 79 16 344 BODY_RECIPE_200180 2 340 345 346 9000 0
 0 0 0 3 5 0 0 0 FFTFFFFFFFFFFFFF9 1 82 1 341 1 79 24 346 BODY_IN_LIGHTWEIGHT_PE
RM80 2 338 347 348 8004 0 0 0 0 3 5 0 0 0 FFTFFFFFFFFFFFFF2 3 83 1 339 1 79 16 3
48 SDL/TYSA_DENSITY80 1 336 349 350 9000 1 1 1 1 1 1 1 1 0 FFTFFFFFFFFFFFFF1 82
 1 337 190700 79 10 350 BODY_MATCH80 2 334 351 352 9000 0 0 0 0 3 5 0 0 0 FFTFTT
TFFTFFFFFF10 10 98 255 13 335 66 111 115 115 45 69 120 116 114 117 100 101 49 79
 23 352 SWIMPLICITBODYNAME_ID_U80 2 332 353 354 9000 0 0 0 0 3 5 0 0 0 FFTFFFFFF
FFFFFFF9 1 82 1 333 42 79 30 354 LAST_BODY_MODIFYING_FEATURE_ID80 5 330 355 356
 9000 0 0 0 0 3 6 0 0 0 FFTTTTTTFTTFTTFF2 2 2 2 2 83 1 331 1 79 19 356 BODY_SCAL
ING_FACTOR80 2 328 357 358 9000 0 0 0 0 3 5 0 0 0 FFTFFFFFFFFFFFFF9 1 82 1 329 1
03 79 19 358 ENT_TIME_STAMP_200180 2 12 359 360 9000 0 0 0 0 3 5 0 0 0 FFTFFFFFF
FFFFFFF9 1 82 1 14 101 79 12 360 ATOM_ID_20011 0 
