**ABCDEFGHIJKLMNOPQRSTUVWXYZabcdefghijklmnopqrstuvwxyz**************************
**PARASOLID !"#$%&'()*+,-./:;<=>?@[\]^_`{|}~0123456789**************************
**PART1;
MC=AMD64;
MC_MODEL=Intel64 Family 6 Model 154 Stepping 3, GenuineIntel;
MC_ID=unknown;
OS=Windows_NT;
OS_RELEASE=unknown;
FRU=Parasolid Version 35.1, build 251, 11- 4-2023;
APPL=SOLIDWORKS 2024-2024203;
SITE=;
USER=unknown;
FORMAT=text;
GUISE=transmit;
KEY=Injector FEA testing;
FILE=Injector FEA testing.x_t;
DATE=Fri Apr 24 18:28:38 2026;
**PART2;
SCH=SCH_3501251_35102;
USFLD_SIZE=0;
**PART3;
**END_OF_HEADER*****************************************************************
T51 : TRANSMIT FILE created by modeller version 350125123 SCH_3501251_35102_1300
6231 0 10 21 CCCCI7 lattice222 0 CCCI4 mesh1006 0 I8 polyline1008 0 CCCCCCCCCCA1
6 mesh_offset_data206 0 Z1 5 2 3 0 0 0 0 0 0 0 0 1e3 1e-8 0 0 0 1 0 1 4 0 81 255
 2 2 5 5 1 0 0 0 0 0 0 70 11 CI9 list_type0 0 1 uI10 notransmit0 0 1 lCCCDCCDI12
 finger_index0 0 1 dI12 finger_block1012 0 CZ3 0 4 T1 0 0 1 20 1 6 6 11 255 4 3
 0 1 7 8 1 9 0 0 0 12 36 CCCI7 lattice222 0 CCCI4 mesh1006 0 I8 polyline1008 0 C
CCCCCCDI5 owner1040 0 CCCI16 boundary_lattice222 0 CCCI13 boundary_mesh1006 0 I1
7 boundary_polyline1008 0 CCCA16 index_map_offset0 0 1 dA9 index_map82 0 A17 nod
e_id_index_map82 0 A20 schema_embedding_map82 0 A5 child12 0 A14 lowest_node_id0
 0 1 dA16 mesh_offset_data206 0 Z7 1152 10 11 0 0 0 0 0 0 0 1e3 1e-8 4 12 0 1 0
 1 1 13 0 14 15 0 0 0 16 17 0 0 0 0 0 0 0 0 100 10 CCCCCCCCCA9 precision229 0 Z8
 4 4 0 0 1 0 0 0 1 0 0 0 1 0 0 0 1 0 ?0 11 9 1 0 1 12 18 1 0 4 0 0 12 12 907 19
 20 0 0 0 0 0 0 0 1e3 1e-8 9 21 7 1 0 1 1 22 0 23 24 0 0 0 25 26 0 0 0 0 0 0 0 0
 100 18 2 9 0 0 1 0 0 0 1 0 0 0 1 0 0 0 1 0 ?0 81 1 19 907 27 12 28 0 0 0 0 70 2
0 0 4 T12 0 0 5 20 1 29 29 13 255 22 529 0 12 0 30 0 0 31 0 51 255 23 126 0 32 3
3 0 0 +-3469446951953615e-32 .084 -.01 0 0 1 .008 1 0 0 31 255 24 577 0 34 35 0
 0 +-.0601040764008569 -.0601040764008563 .01 0 0 1 1 0 0 .008 19 9 CCCCCCI5 fra
me230 0 CA5 owner12 0 Z25 531 0 12 31 0 36 0 V0 16 255 26 29 0 ?37 0 38 39 0 0 1
2 17 255 37 0 40 37 37 0 41 26 0 0 +16 38 24 0 ?42 26 43 44 0 0 12 31 39 31 0 26
 44 45 0 +0 0 -.01 0 0 1 1 0 0 .1 31 44 26 0 38 46 39 0 +.084 -.0005072479643626
72 -.01 0 0 1 1 0 0 .008 31 45 439 0 47 39 48 0 +0 0 .01 0 0 1 1 0 0 .0685 16 47
 457 0 ?49 50 51 45 0 0 12 31 48 556 0 52 45 53 0 +-.0601040764008569 .060104076
4008562 .01 0 0 1 1 0 0 .008 16 52 697 0 ?54 55 0 48 0 0 12 31 53 563 0 56 48 35
 0 +.0601040764008564 .0601040764008567 .01 0 0 1 1 0 0 .008 16 56 667 0 ?57 58
 55 53 0 0 12 31 35 570 0 59 53 24 0 +.0601040764008565 -.0601040764008567 .01 0
 0 1 1 0 0 .008 16 59 637 0 ?60 61 58 35 0 0 12 17 60 0 62 60 60 0 63 59 0 0 +16
 61 636 0 ?64 34 59 65 0 0 12 16 58 666 0 ?66 59 56 67 0 0 12 17 66 0 68 66 66 0
 69 58 0 0 +31 67 747 0 58 70 65 0 +.0601040764008564 .0601040764008567 -.01 0 0
 1 1 0 0 .008 31 70 748 0 55 0 67 0 +-.0601040764008569 .0601040764008562 -.01 0
 0 1 1 0 0 .008 31 65 746 0 61 67 71 0 +.0601040764008565 -.0601040764008567 -.0
1 0 0 1 1 0 0 .008 31 71 745 0 51 65 72 0 +-.0601040764008569 -.0601040764008563
 -.01 0 0 1 1 0 0 .008 16 51 606 0 ?73 47 34 71 0 0 12 31 72 516 0 50 71 74 0 +0
 0 -.01 0 0 1 1 0 0 .0685 16 50 456 0 ?75 76 47 72 0 0 12 31 74 239 0 76 72 77 0
 +-3469446951953615e-32 .084 .01 0 0 1 1 0 0 .008 16 76 154 0 ?78 79 50 74 0 0 1
2 31 77 238 0 79 74 80 0 +-.0845072479643626 0 .01 0 0 1 1 0 0 .008 16 79 150 0
 ?81 82 76 77 0 0 12 31 80 237 0 82 77 83 0 +-.000507247964362639 -.084507247964
3626 .01 0 0 1 1 0 0 .008 16 82 146 0 ?84 85 79 80 0 0 12 31 83 236 0 85 80 86 0
 +.084 -.000507247964362672 .01 0 0 1 1 0 0 .008 16 85 142 0 ?87 88 82 83 0 0 12
 31 86 235 0 88 83 89 0 +0 0 .01 0 0 1 1 0 0 .1 16 88 162 0 ?90 91 85 86 0 0 12
 31 89 11 0 91 86 92 0 +-3469446951953615e-32 .084 -.01 0 0 1 1 0 0 .008 16 91 9
 0 ?93 94 88 89 0 0 12 31 92 16 0 94 89 46 0 +-.0845072479643626 0 -.01 0 0 1 1
 0 0 .008 16 94 14 0 ?95 43 91 92 0 0 12 31 46 21 0 43 92 44 0 +-.00050724796436
2639 -.0845072479643626 -.01 0 0 1 1 0 0 .008 16 43 19 0 ?96 38 94 46 0 0 12 17
 96 0 97 96 96 0 98 43 0 0 +15 255 97 6 0 96 99 100 17 98 0 101 98 98 0 96 43 0
 0 -15 101 110 0 98 102 103 14 255 102 111 104 ?105 106 101 22 107 -0 0 105 106
 36 15 103 190 0 84 102 0 17 84 0 103 84 84 0 108 82 0 0 +17 108 0 109 108 108 0
 84 82 0 0 -15 109 211 0 108 110 111 14 110 207 112 ?113 32 114 22 115 +0 0 113
 32 36 15 111 212 0 116 110 117 17 116 0 111 116 116 0 87 85 0 0 -15 117 213 0 9
0 110 0 17 90 0 117 90 90 0 118 88 0 0 +17 118 0 119 118 118 0 90 88 0 0 -15 119
 205 0 118 30 0 14 30 103 120 ?106 0 40 22 121 +0 0 106 0 36 81 1 120 888 122 30
 123 0 112 124 125 14 106 107 124 ?102 30 126 22 127 -0 0 102 30 36 15 40 102 0
 37 30 119 51 121 122 0 30 128 127 0 +0 0 -.01 0 0 1 .1 1 0 0 13 36 530 0 0 0 0
 0 0 25 30 50 255 128 3 0 99 115 121 0 +0 0 -.01 0 0 1 1 0 0 51 127 123 0 106 12
1 107 0 +.084 -.000507247964362672 -.01 0 0 1 .008 1 0 0 51 107 124 0 102 127 33
 0 +-.000507247964362639 -.0845072479643626 -.01 0 0 1 .008 1 0 0 51 33 125 0 10
5 107 23 0 +-.0845072479643626 0 -.01 0 0 1 .008 1 0 0 14 105 115 129 ?99 102 13
0 22 33 -0 0 99 102 36 81 1 129 892 122 105 131 0 124 132 133 14 99 1 132 ?32 10
5 134 22 128 -0 0 32 105 36 15 130 114 0 135 105 136 17 135 0 130 135 135 0 95 9
4 0 0 -15 136 195 0 81 105 0 17 81 0 136 81 81 0 137 79 0 0 +17 137 0 138 137 13
7 0 81 79 0 0 -15 138 210 0 137 110 109 17 95 0 139 95 95 0 135 94 0 0 +15 139 5
 0 95 99 97 81 1 132 894 122 99 140 0 129 141 142 14 32 119 141 ?110 99 143 22 2
3 -0 0 110 99 36 15 134 600 0 73 99 144 17 73 0 134 73 73 0 145 51 0 0 +15 144 5
94 0 64 99 68 17 64 0 144 64 64 0 146 61 0 0 +15 68 588 0 66 99 147 15 147 582 0
 148 99 149 17 148 0 147 148 148 0 150 55 0 0 +15 149 450 0 75 99 151 17 75 0 14
9 75 75 0 152 50 0 0 +15 151 4 0 93 99 139 17 93 0 151 93 93 0 153 91 0 0 +17 15
3 0 143 153 153 0 93 91 0 0 -15 143 118 0 153 32 154 15 154 200 0 78 32 0 17 78
 0 154 78 78 0 155 76 0 0 +17 155 0 156 155 155 0 78 76 0 0 -15 156 209 0 155 11
0 138 17 152 0 157 152 152 0 75 50 0 0 -15 157 476 0 152 113 0 14 113 472 158 ?1
59 110 160 22 161 -0 0 159 110 36 81 1 158 898 122 113 162 0 141 163 164 14 159
 704 163 ?165 113 166 22 167 -0 0 165 113 36 15 160 475 0 49 113 157 51 161 512
 0 113 167 115 0 +0 0 -.066 0 0 1 .0685 1 0 0 51 167 733 0 159 168 161 0 +-.0601
040764008569 .0601040764008562 -.021 0 0 1 .008 1 0 0 50 115 229 0 110 161 128 0
 +0 0 .01 0 0 1 1 0 0 51 168 738 0 169 170 167 0 +-.0601040764008569 -.060104076
4008563 -.021 0 0 1 .008 1 0 0 14 169 614 171 ?0 172 173 22 168 -0 0 0 172 36 51
 170 741 0 172 174 168 0 +.0601040764008565 -.0601040764008567 -.021 0 0 1 .008
 1 0 0 14 172 644 175 ?169 165 62 22 170 -0 0 169 165 36 51 174 744 0 165 0 170
 0 +.0601040764008564 .0601040764008567 -.021 0 0 1 .008 1 0 0 14 165 674 176 ?1
72 159 177 22 174 -0 0 172 159 36 81 1 176 906 122 165 178 0 175 0 179 15 177 67
7 0 57 165 180 17 57 0 177 57 57 0 181 56 0 0 +15 180 678 0 69 165 0 17 69 0 180
 69 69 0 66 58 0 0 -17 181 0 182 181 181 0 57 56 0 0 -15 182 562 0 181 110 183 1
5 183 555 0 184 110 185 17 184 0 183 184 184 0 54 52 0 0 -15 185 438 0 186 110 1
56 17 186 0 185 186 186 0 49 47 0 0 -17 49 0 160 49 49 0 186 47 0 0 +17 54 0 166
 54 54 0 184 52 0 0 +15 166 707 0 54 159 187 15 187 708 0 150 159 0 17 150 0 187
 150 150 0 148 55 0 0 -16 55 696 0 ?148 56 52 70 0 0 12 80 7 CCCCCDI12 legal_own
ers0 16 1 lCZ1 122 188 189 9000 1 1 1 1 1 1 1 1 0 FFFFTFTFFFFFFFFF1 81 1 178 842
 190 165 0 176 191 192 193 81 1 175 904 122 172 192 0 171 176 194 82 255 1 179 4
37846767 81 1 192 843 190 172 0 175 178 195 196 81 1 171 902 122 169 195 0 163 1
75 197 82 1 194 438960879 81 1 195 844 190 169 0 171 192 0 198 81 1 163 900 122
 159 191 0 158 171 199 82 1 197 440074991 81 1 191 841 190 159 0 163 162 178 200
 82 1 199 436732655 80 1 190 0 201 8001 0 0 0 0 3 5 0 0 0 FFFFTFTFFFFFFFFF2 81 1
 162 840 190 113 0 158 202 191 203 83 255 3 200 .792156862745098 .81960784313725
5 .933333333333333 81 1 202 839 190 110 0 112 204 162 205 83 3 203 .792156862745
098 .819607843137255 .933333333333333 81 1 112 886 122 110 202 0 104 120 206 81
 1 204 838 190 32 0 141 140 202 207 83 3 205 .792156862745098 .819607843137255 .
933333333333333 81 1 141 896 122 32 204 0 132 158 208 81 1 140 837 190 99 0 132
 131 204 209 83 3 207 .792156862745098 .819607843137255 .933333333333333 81 1 13
1 836 190 105 0 129 210 140 211 83 3 209 .792156862745098 .819607843137255 .9333
33333333333 81 1 210 835 190 102 0 104 212 131 213 83 3 211 .792156862745098 .81
9607843137255 .933333333333333 81 1 104 884 122 102 210 0 0 112 214 81 1 212 834
 190 106 0 124 123 210 215 83 3 213 .792156862745098 .819607843137255 .933333333
333333 81 1 124 890 122 106 212 0 120 129 216 81 1 123 833 190 30 0 120 0 212 21
7 83 3 215 .792156862745098 .819607843137255 .933333333333333 83 3 217 .79215686
2745098 .819607843137255 .933333333333333 82 1 216 -1715535278 82 1 214 -1715142
062 82 1 208 -1714355630 82 1 206 173015791 79 255 15 201 SDL/TYSA_COLOUR83 3 19
8 .792156862745098 .819607843137255 .933333333333333 83 3 196 .792156862745098 .
819607843137255 .933333333333333 83 3 193 .792156862745098 .819607843137255 .933
333333333333 79 14 189 SWEntUnchanged15 62 647 0 60 172 218 15 218 648 0 146 172
 0 17 146 0 218 146 146 0 64 61 0 0 -15 173 617 0 219 169 220 17 219 0 173 219 2
19 0 221 34 0 0 +15 220 618 0 145 169 0 17 145 0 220 145 145 0 73 51 0 0 -17 221
 0 114 221 221 0 219 34 0 0 -16 34 607 0 ?219 51 61 24 0 0 12 15 114 576 0 221 1
10 222 15 222 569 0 63 110 182 17 63 0 222 63 63 0 60 59 0 0 -82 1 164 -16190662
80 82 1 142 174260975 82 1 133 -1714748846 15 126 106 0 223 106 224 17 223 0 126
 223 223 0 42 38 0 0 -15 224 185 0 87 106 0 17 87 0 224 87 87 0 116 85 0 0 +17 4
2 0 100 42 42 0 223 38 0 0 +15 100 7 0 42 99 225 15 225 8 0 41 99 0 17 41 0 225
 41 41 0 37 26 0 0 -82 1 125 -1715797422 19 31 128 0 12 0 25 22 0 S0 74 4 CI16 i
ndex_map_offset0 0 1 dCCZ20 29 5 0 0 176 226 28 195 19 0 0 0 0 0 0 0 0 0 0 0 0 0
 0 0 81 2 226 424 227 12 0 28 0 0 228 0 81 2 28 787 229 12 226 19 0 0 230 0 80 2
 229 231 232 8004 0 0 0 0 3 5 0 0 0 FFTFFFFFFFFFFFFF2 3 83 1 230 1 79 16 232 SDL
/TYSA_DENSITY80 2 227 233 234 9000 0 0 0 0 3 5 0 0 0 FFTFTTTFFTFFFFFF10 10 98 25
5 13 228 67 117 116 45 69 120 116 114 117 100 101 49 51 79 23 234 SWIMPLICITBODY
NAME_ID_U80 1 27 235 236 8017 0 0 0 0 0 0 0 0 0 TTTTTTTTTTTTTFTF3 79 13 236 SDL/
TYSA_NAME81 1 10 1152 27 7 237 0 0 0 0 70 11 0 4 T7 0 0 5 20 1 238 238 13 13 10
 0 7 0 239 0 0 240 0 54 255 14 969 0 241 242 0 0 +0 0 .006 0 0 -1 .014 .01 -1 0
 0 31 15 924 0 17 243 0 0 +0 0 .016 0 0 1 1 0 0 .014 19 16 8 0 7 240 0 244 0 V0
 16 17 921 0 ?245 0 246 15 0 0 7 17 245 0 247 245 245 0 248 17 0 0 +16 246 914 0
 ?249 17 250 243 0 0 7 17 249 0 251 249 249 0 252 246 0 0 +16 250 907 0 ?253 246
 254 255 0 0 7 31 243 917 0 246 255 15 0 +0 0 .0161 0 0 1 1 0 0 .011589326402033
42 31 255 910 0 250 256 243 0 +0 0 .012 0 0 1 1 0 0 .024 31 256 545 0 257 258 25
5 0 +.00517772819749079 .00518978461049905 -.01 0 0 1 1 0 0 .0015 16 257 593 0 ?
259 260 261 256 0 0 7 31 258 538 0 262 263 256 0 +0 0 -.01 0 0 1 1 0 0 .0035 16
 262 623 0 ?264 261 265 258 0 0 7 31 263 531 0 266 267 258 0 +-.0051897846104991
9 .00517772819749066 -.01 0 0 1 1 0 0 .0015 16 266 653 0 ?268 265 269 263 0 0 7
 31 267 524 0 270 271 263 0 +1044546710066946e-31 -.00729603715477577 -.01 0 0 1
 1 0 0 .0015 16 270 683 0 ?272 269 273 267 0 0 7 31 271 517 0 274 275 267 0 +.00
518978461049913 -.00517772819749088 -.01 0 0 1 1 0 0 .0015 16 274 713 0 ?276 273
 277 271 0 0 7 31 275 510 0 278 279 271 0 +-.00517772819749079 -.005189784610499
22 -.01 0 0 1 1 0 0 .0015 16 278 743 0 ?280 277 281 275 0 0 7 31 279 503 0 282 2
83 275 0 +0 .00729603715477577 -.01 0 0 1 1 0 0 .0015 16 282 773 0 ?284 281 0 27
9 0 0 7 31 283 141 0 285 286 279 0 +-.03752791115846545 .0299275104892192 -.01 0
 0 1 1 0 0 .012 16 285 189 0 ?287 288 289 283 0 0 7 31 286 134 0 290 291 283 0 +
-.0467965397847275 -.0106810048299031 -.01 0 0 1 1 0 0 .012 16 290 219 0 ?292 28
9 293 286 0 0 7 31 291 127 0 294 295 286 0 +0 .048 -.01 0 0 1 1 0 0 .012 16 294
 249 0 ?296 293 297 291 0 0 7 31 295 120 0 298 299 291 0 +.03752791115846545 .02
99275104892192 -.01 0 0 1 1 0 0 .012 16 298 279 0 ?300 297 301 295 0 0 7 31 299
 113 0 302 303 295 0 +.0467965397847275 -.0106810048299031 -.01 0 0 1 1 0 0 .012
 16 302 309 0 ?304 301 305 299 0 0 7 31 303 106 0 306 307 299 0 +.02082641947764
28 -.0432465056593161 -.01 0 0 1 1 0 0 .012 16 306 339 0 ?308 305 309 303 0 0 7
 31 307 99 0 310 311 303 0 +-.0208264194776428 -.0432465056593161 -.01 0 0 1 1 0
 0 .012 16 310 369 0 ?312 309 260 307 0 0 7 31 311 76 0 254 313 307 0 +0 0 -.01
 0 0 1 1 0 0 .0665 16 254 18 0 ?314 250 315 311 0 0 7 31 313 74 0 315 316 311 0
 +0 0 .016 0 0 1 1 0 0 .013 16 315 16 0 ?317 254 318 313 0 0 7 31 316 72 0 318 3
19 313 0 +0 0 .012 0 0 1 1 0 0 .022 16 318 14 0 ?320 315 321 316 0 0 7 31 319 70
 0 322 323 316 0 -0 0 .01 0 0 1 1 0 0 .03 16 322 11 0 ?324 321 288 319 0 0 7 31
 323 69 0 321 325 319 0 +0 0 .01 0 0 1 1 0 0 .0665 16 321 12 0 ?326 318 322 323
 0 0 7 31 325 432 0 288 327 323 0 +-.03752791115846545 .0299275104892192 .01 0 0
 1 1 0 0 .012 16 288 188 0 ?328 322 285 325 0 0 7 31 327 433 0 289 329 325 0 +-.
0467965397847275 -.0106810048299031 .01 0 0 1 1 0 0 .012 16 289 218 0 ?330 285 2
90 327 0 0 7 31 329 434 0 293 331 327 0 +0 .048 .01 0 0 1 1 0 0 .012 16 293 248
 0 ?332 290 294 329 0 0 7 31 331 435 0 297 333 329 0 +.03752791115846545 .029927
5104892192 .01 0 0 1 1 0 0 .012 16 297 278 0 ?334 294 298 331 0 0 7 31 333 436 0
 301 335 331 0 +.0467965397847275 -.0106810048299031 .01 0 0 1 1 0 0 .012 16 301
 308 0 ?336 298 302 333 0 0 7 31 335 437 0 305 337 333 0 +.0208264194776428 -.04
32465056593161 .01 0 0 1 1 0 0 .012 16 305 338 0 ?338 302 306 335 0 0 7 31 337 4
38 0 309 339 335 0 +-.0208264194776428 -.0432465056593161 .01 0 0 1 1 0 0 .012 1
6 309 368 0 ?340 306 310 337 0 0 7 31 339 836 0 260 341 337 0 +.0051777281974907
9 .00518978461049905 .0161 0 0 1 1 0 0 .0015 16 260 592 0 ?342 310 257 339 0 0 7
 31 341 837 0 261 343 339 0 +0 0 .0161 0 0 1 1 0 0 .0035 16 261 622 0 ?344 257 2
62 341 0 0 7 31 343 838 0 265 345 341 0 +-.00518978461049919 .00517772819749066
 .0161 0 0 1 1 0 0 .0015 16 265 652 0 ?346 262 266 343 0 0 7 31 345 839 0 269 34
7 343 0 +1044546710066946e-31 -.00729603715477577 .0161 0 0 1 1 0 0 .0015 16 269
 682 0 ?348 266 270 345 0 0 7 31 347 840 0 273 349 345 0 +.00518978461049913 -.0
0517772819749088 .0161 0 0 1 1 0 0 .0015 16 273 712 0 ?350 270 274 347 0 0 7 31
 349 841 0 277 351 347 0 +-.00517772819749079 -.00518978461049922 .0161 0 0 1 1
 0 0 .0015 16 277 742 0 ?352 274 278 349 0 0 7 31 351 842 0 281 0 349 0 +0 .0072
9603715477577 .0161 0 0 1 1 0 0 .0015 16 281 772 0 ?353 278 282 351 0 0 7 17 353
 0 354 353 353 0 355 281 0 0 +15 354 788 0 353 356 357 17 355 0 358 355 355 0 35
3 281 0 0 -15 358 551 0 355 359 0 14 359 49 360 ?361 362 251 13 363 +0 0 361 362
 244 81 1 360 1107 122 359 364 0 0 365 366 14 361 53 365 ?367 359 368 13 369 +0
 0 367 359 244 14 362 39 370 ?359 371 247 13 372 +0 0 359 371 244 15 251 915 0 2
49 359 373 50 363 67 0 359 372 369 0 +0 0 .0161 0 0 1 1 0 0 13 244 9 0 0 0 0 0 0
 16 239 14 239 19 374 ?371 0 375 13 376 +0 0 371 0 244 81 1 374 1113 122 239 377
 0 370 378 379 14 371 29 378 ?362 239 380 13 381 +0 0 362 239 244 15 375 183 0 3
82 239 383 50 376 78 0 239 384 385 0 +0 0 .01 0 0 1 1 0 0 50 384 77 0 367 369 37
6 0 +0 0 -.01 0 0 1 1 0 0 54 385 943 0 386 376 242 0 +0 0 .002 0 0 -1 .024 .01 -
1 0 0 14 386 936 387 ?388 389 390 13 385 +0 0 388 389 244 54 242 956 0 388 385 1
4 0 +0 0 .0061 0 0 -1 .01158932640203342 .01 -1 0 0 14 388 949 391 ?241 386 392
 13 242 +0 0 241 386 244 81 1 391 1119 122 388 393 0 387 394 395 14 241 962 394
 ?0 388 396 13 14 +0 0 0 388 244 15 392 950 0 317 388 397 17 317 0 392 317 317 0
 398 315 0 0 +15 397 951 0 252 388 0 17 252 0 397 252 252 0 249 246 0 0 -17 398
 0 399 398 398 0 317 315 0 0 -15 399 42 0 398 362 0 81 1 394 1121 122 241 400 0
 391 401 402 15 396 963 0 320 241 403 17 320 0 396 320 320 0 404 318 0 0 +15 403
 964 0 248 241 0 17 248 0 403 248 248 0 245 17 0 0 -17 404 0 405 404 404 0 320 3
18 0 0 -15 405 32 0 404 371 0 81 1 400 1034 190 241 0 394 393 0 406 81 1 401 112
3 122 389 407 0 394 408 409 82 1 402 -1918631176 14 389 605 401 ?386 410 411 13
 412 -0 0 386 410 244 81 1 407 1031 190 389 0 401 413 414 415 81 1 408 1125 122
 410 413 0 401 416 417 82 1 409 529728240 14 410 635 408 ?389 418 419 13 420 -0
 0 389 418 244 81 1 413 1030 190 410 0 408 421 407 422 81 1 416 1127 122 418 421
 0 408 423 424 82 1 417 528614128 14 418 665 416 ?410 425 426 13 427 -0 0 410 42
5 244 81 1 421 1029 190 418 0 416 428 413 429 81 1 423 1129 122 425 428 0 416 43
0 431 82 1 424 527500016 14 425 695 423 ?418 432 433 13 434 -0 0 418 432 244 81
 1 428 1028 190 425 0 423 435 421 436 81 1 430 1131 122 432 435 0 423 437 438 82
 1 431 526385904 14 432 725 430 ?425 439 440 13 441 -0 0 425 439 244 81 1 435 10
27 190 432 0 430 442 428 443 81 1 437 1133 122 439 442 0 430 444 445 82 1 438 52
5271792 14 439 755 437 ?432 356 446 13 447 -0 0 432 356 244 81 1 442 1026 190 43
9 0 437 448 435 449 81 1 444 1135 122 356 448 0 437 450 451 82 1 445 524157680 1
4 356 785 444 ?439 452 354 13 453 -0 0 439 452 244 81 1 448 1025 190 356 0 444 4
54 442 455 81 1 450 1137 122 367 456 0 444 457 458 82 1 451 523043568 14 367 58
 450 ?459 361 460 13 384 -0 0 459 361 244 81 1 456 1017 190 367 0 450 461 462 46
3 81 1 457 1139 122 452 454 0 450 464 465 82 1 458 159253232 14 452 201 457 ?356
 466 467 13 468 -0 0 356 466 244 81 1 454 1024 190 452 0 457 469 448 470 81 1 46
4 1141 122 466 469 0 457 471 472 82 1 465 -1445264762 14 466 231 464 ?452 473 47
4 13 475 -0 0 452 473 244 81 1 469 1023 190 466 0 464 476 454 477 81 1 471 1143
 122 473 476 0 464 478 479 82 1 472 -1446378874 14 473 261 471 ?466 480 481 13 4
82 -0 0 466 480 244 81 1 476 1022 190 473 0 471 483 469 484 81 1 478 1145 122 48
0 483 0 471 485 486 82 1 479 -1447492986 14 480 291 478 ?473 487 488 13 489 -0 0
 473 487 244 81 1 483 1021 190 480 0 478 490 476 491 81 1 485 1147 122 487 490 0
 478 492 493 82 1 486 -1448607098 14 487 321 485 ?480 494 495 13 496 -0 0 480 49
4 244 81 1 490 1020 190 487 0 485 497 483 498 81 1 492 1149 122 494 497 0 485 49
9 500 82 1 493 -1449721210 14 494 351 492 ?487 459 501 13 502 -0 0 487 459 244 8
1 1 497 1019 190 494 0 492 462 490 503 81 1 499 1151 122 459 462 0 492 0 504 82
 1 500 -1450835322 14 459 381 499 ?494 367 505 13 506 -0 0 494 367 244 81 1 462
 1018 190 459 0 499 456 497 507 82 1 504 -1451949434 83 3 507 .792156862745098 .
819607843137255 .933333333333333 15 505 384 0 340 459 508 51 506 411 0 459 468 3
81 0 +-.0208264194776428 -.0432465056593161 -.021 0 0 1 .012 1 0 0 51 468 416 0
 452 475 506 0 +-.03752791115846545 .0299275104892192 -.021 0 0 1 .012 1 0 0 50
 381 63 0 371 506 372 0 +0 0 .012 0 0 1 1 0 0 50 372 65 0 362 381 363 0 +0 0 .01
6 0 0 1 1 0 0 51 475 419 0 466 482 468 0 +-.0467965397847275 -.0106810048299031
 -.021 0 0 1 .012 1 0 0 51 482 422 0 473 489 475 0 +0 .048 -.021 0 0 1 .012 1 0
 0 51 489 425 0 480 496 482 0 +.03752791115846545 .0299275104892192 -.021 0 0 1
 .012 1 0 0 51 496 428 0 487 502 489 0 +.0467965397847275 -.0106810048299031 -.0
21 0 0 1 .012 1 0 0 51 502 431 0 494 453 496 0 +.0208264194776428 -.043246505659
3161 -.021 0 0 1 .012 1 0 0 51 453 815 0 356 427 502 0 +0 .00729603715477577 -.0
149 0 0 1 .0015 1 0 0 51 427 820 0 418 434 453 0 +-.00518978461049919 .005177728
19749066 -.0149 0 0 1 .0015 1 0 0 51 434 823 0 425 412 427 0 +1044546710066946e-
31 -.00729603715477577 -.0149 0 0 1 .0015 1 0 0 51 412 826 0 389 420 434 0 +.005
17772819749079 .00518978461049905 -.0149 0 0 1 .0015 1 0 0 51 420 829 0 410 447
 412 0 +0 0 -.0149 0 0 1 .0035 1 0 0 51 447 832 0 439 441 420 0 +-.0051777281974
9079 -.00518978461049922 -.0149 0 0 1 .0015 1 0 0 51 441 835 0 432 0 447 0 +.005
18978461049913 -.00517772819749088 -.0149 0 0 1 .0015 1 0 0 17 340 0 505 340 340
 0 509 309 0 0 +15 508 385 0 510 459 0 17 510 0 508 510 510 0 312 310 0 0 -17 31
2 0 511 312 312 0 510 310 0 0 +15 511 97 0 312 367 512 15 512 61 0 513 367 0 17
 513 0 512 513 513 0 314 254 0 0 -17 314 0 514 314 314 0 513 254 0 0 +15 514 57
 0 314 361 0 17 509 0 515 509 509 0 340 309 0 0 -15 515 147 0 509 239 516 15 516
 22 0 324 239 517 17 324 0 516 324 324 0 518 322 0 0 +15 517 23 0 326 239 0 17 3
26 0 517 326 326 0 519 321 0 0 +17 519 0 368 519 519 0 326 321 0 0 -15 368 56 0
 519 361 514 17 518 0 390 518 518 0 324 322 0 0 -15 390 937 0 518 386 520 15 520
 938 0 521 386 0 17 521 0 520 521 521 0 253 250 0 0 -17 253 0 380 253 253 0 521
 250 0 0 +15 380 908 0 253 371 405 83 3 503 .792156862745098 .819607843137255 .9
33333333333333 15 501 354 0 338 494 522 17 338 0 501 338 338 0 523 305 0 0 +15 5
22 355 0 524 494 0 17 524 0 522 524 524 0 308 306 0 0 -17 308 0 525 308 308 0 52
4 306 0 0 +15 525 104 0 308 367 511 17 523 0 526 523 523 0 338 305 0 0 -15 526 1
53 0 523 239 515 83 3 498 .792156862745098 .819607843137255 .933333333333333 15
 495 324 0 336 487 527 17 336 0 495 336 336 0 528 301 0 0 +15 527 325 0 529 487
 0 17 529 0 527 529 529 0 304 302 0 0 -17 304 0 530 304 304 0 529 302 0 0 +15 53
0 111 0 304 367 525 17 528 0 531 528 528 0 336 301 0 0 -15 531 159 0 528 239 526
 83 3 491 .792156862745098 .819607843137255 .933333333333333 15 488 294 0 334 48
0 532 17 334 0 488 334 334 0 533 297 0 0 +15 532 295 0 534 480 0 17 534 0 532 53
4 534 0 300 298 0 0 -17 300 0 535 300 300 0 534 298 0 0 +15 535 118 0 300 367 53
0 17 533 0 536 533 533 0 334 297 0 0 -15 536 165 0 533 239 531 83 3 484 .7921568
62745098 .819607843137255 .933333333333333 15 481 264 0 332 473 537 17 332 0 481
 332 332 0 538 293 0 0 +15 537 265 0 539 473 0 17 539 0 537 539 539 0 296 294 0
 0 -17 296 0 540 296 296 0 539 294 0 0 +15 540 125 0 296 367 535 17 538 0 541 53
8 538 0 332 293 0 0 -15 541 171 0 538 239 536 83 3 477 .792156862745098 .8196078
43137255 .933333333333333 15 474 234 0 330 466 542 17 330 0 474 330 330 0 543 28
9 0 0 +15 542 235 0 544 466 0 17 544 0 542 544 544 0 292 290 0 0 -17 292 0 545 2
92 292 0 544 290 0 0 +15 545 132 0 292 367 540 17 543 0 383 543 543 0 330 289 0
 0 -15 383 177 0 543 239 541 83 3 470 .792156862745098 .819607843137255 .9333333
33333333 15 467 204 0 328 452 546 17 328 0 467 328 328 0 382 288 0 0 +15 546 205
 0 547 452 0 17 547 0 546 547 547 0 287 285 0 0 -17 287 0 548 287 287 0 547 285
 0 0 +15 548 139 0 287 367 545 17 382 0 375 382 382 0 328 288 0 0 -81 1 461 1016
 190 361 0 365 364 456 549 83 3 463 .792156862745098 .819607843137255 .933333333
333333 81 1 365 1109 122 361 461 0 360 370 550 81 1 364 1015 190 359 0 360 551 4
61 552 83 3 549 .792156862745098 .819607843137255 .933333333333333 81 1 551 1014
 190 362 0 370 553 364 554 83 3 552 .792156862745098 .819607843137255 .933333333
333333 81 1 370 1111 122 362 551 0 365 374 555 81 1 553 1013 190 371 0 378 377 5
51 556 83 3 554 .792156862745098 .819607843137255 .933333333333333 81 1 378 1115
 122 371 553 0 374 387 557 81 1 377 1012 190 239 0 374 0 553 558 83 3 556 .79215
6862745098 .819607843137255 .933333333333333 83 3 558 .792156862745098 .81960784
3137255 .933333333333333 81 1 387 1117 122 386 414 0 378 391 559 82 1 557 357434
104 81 1 414 1032 190 386 0 387 407 393 560 82 1 559 -1921121544 81 1 393 1033 1
90 388 0 391 414 400 561 83 3 560 .792156862745098 .819607843137255 .93333333333
3333 83 3 561 .792156862745098 .819607843137255 .933333333333333 82 1 555 357040
888 82 1 550 -1620180392 15 460 543 0 259 367 562 17 259 0 460 259 259 0 563 257
 0 0 +15 562 536 0 264 367 564 17 264 0 562 264 264 0 565 262 0 0 +15 564 529 0
 268 367 566 17 268 0 564 268 268 0 567 266 0 0 +15 566 522 0 272 367 568 17 272
 0 566 272 272 0 569 270 0 0 +15 568 515 0 276 367 570 17 276 0 568 276 276 0 57
1 274 0 0 +15 570 508 0 280 367 572 17 280 0 570 280 280 0 573 278 0 0 +15 572 5
01 0 284 367 548 17 284 0 572 284 284 0 574 282 0 0 +17 574 0 357 574 574 0 284
 282 0 0 -15 357 789 0 574 356 0 17 573 0 575 573 573 0 280 278 0 0 -15 575 759
 0 573 439 0 17 571 0 576 571 571 0 276 274 0 0 -15 576 729 0 571 432 0 17 569 0
 577 569 569 0 272 270 0 0 -15 577 699 0 569 425 0 17 567 0 578 567 567 0 268 26
6 0 0 -15 578 669 0 567 418 0 17 565 0 579 565 565 0 264 262 0 0 -15 579 639 0 5
65 410 0 17 563 0 580 563 563 0 259 257 0 0 -15 580 609 0 563 389 0 83 3 455 .79
2156862745098 .819607843137255 .933333333333333 83 3 449 .792156862745098 .81960
7843137255 .933333333333333 15 446 758 0 352 439 575 17 352 0 446 352 352 0 581
 277 0 0 +17 581 0 582 581 581 0 352 277 0 0 -15 582 557 0 581 359 358 83 3 443
 .792156862745098 .819607843137255 .933333333333333 15 440 728 0 350 432 576 17
 350 0 440 350 350 0 583 273 0 0 +17 583 0 584 583 583 0 350 273 0 0 -15 584 563
 0 583 359 582 83 3 436 .792156862745098 .819607843137255 .933333333333333 15 43
3 698 0 348 425 577 17 348 0 433 348 348 0 585 269 0 0 +17 585 0 586 585 585 0 3
48 269 0 0 -15 586 569 0 585 359 584 83 3 429 .792156862745098 .819607843137255
 .933333333333333 15 426 668 0 346 418 578 17 346 0 426 346 346 0 587 265 0 0 +1
7 587 0 588 587 587 0 346 265 0 0 -15 588 575 0 587 359 586 83 3 422 .7921568627
45098 .819607843137255 .933333333333333 15 419 638 0 344 410 579 17 344 0 419 34
4 344 0 589 261 0 0 +17 589 0 590 589 589 0 344 261 0 0 -15 590 581 0 589 359 58
8 83 3 415 .792156862745098 .819607843137255 .933333333333333 15 411 608 0 342 3
89 580 17 342 0 411 342 342 0 591 260 0 0 +17 591 0 373 591 591 0 342 260 0 0 -1
5 373 587 0 591 359 590 83 3 406 .792156862745098 .819607843137255 .933333333333
333 82 1 395 -1919876360 51 369 68 0 361 363 384 0 +0 0 -.066 0 0 1 .0665 1 0 0
 82 1 379 34734726 15 247 922 0 245 362 399 82 1 366 356844280 19 240 1 0 7 0 16
 13 0 S0 74 20 238 5 0 0 592 499 237 400 10 0 0 0 0 0 0 0 0 0 0 0 0 0 0 0 81 2 5
92 2 227 7 0 237 0 0 593 0 81 2 237 987 229 7 592 10 0 0 594 0 83 1 594 1 98 7 5
93 70 105 108 108 101 116 53 74 20 6 1 0 0 2 0 0 0 0 0 0 0 0 0 0 0 0 0 0 0 0 0 0
 0 80 2 5 595 596 9000 0 0 0 0 3 5 0 0 0 TFFFFFFFFFFFFFFF9 1 79 18 596 MULTI_BOD
Y_ID_20011 0 
